<svg width="3094" height="2051" xmlns="http://www.w3.org/2000/svg" xmlns:xlink="http://www.w3.org/1999/xlink" xml:space="preserve" overflow="hidden"><g transform="translate(-320 -217)"><path d="M1925.79 1650.05C1919.77 1650.05 1914.48 1651.53 1909.92 1654.48 1905.35 1657.44 1901.19 1661.87 1897.43 1667.77L1901.94 1689.52C1903.44 1696.93 1905.83 1703.88 1909.11 1710.38 1912.39 1716.88 1916.17 1722.57 1920.47 1727.45 1924.77 1732.34 1929.39 1736.21 1934.33 1739.05 1939.27 1741.9 1944.11 1743.32 1948.83 1743.32 1952.16 1743.32 1954.9 1742.65 1957.05 1741.31 1959.2 1739.96 1960.92 1738.17 1962.21 1735.91 1963.5 1733.65 1964.38 1731.08 1964.87 1728.18 1965.35 1725.28 1965.59 1722.22 1965.59 1719 1965.59 1714.59 1965.24 1709.79 1964.55 1704.58 1963.85 1699.37 1962.77 1694.22 1961.32 1689.12 1959.87 1684.02 1958.05 1679.1 1955.84 1674.38 1953.64 1669.65 1951.09 1665.49 1948.19 1661.89 1945.29 1658.3 1941.96 1655.42 1938.2 1653.28 1934.44 1651.13 1930.3 1650.05 1925.79 1650.05ZM645.343 1644.42C638.897 1644.42 633.982 1645.84 630.598 1648.69 627.213 1651.53 625.521 1655.1 625.521 1659.4 625.521 1662.4 626.327 1665.22 627.939 1667.85 629.55 1670.48 632.129 1672.77 635.674 1674.7 639.219 1676.63 643.892 1678.16 649.694 1679.29 655.495 1680.42 662.693 1680.98 671.288 1680.98L684.825 1680.98C683.428 1675.93 681.575 1671.18 679.265 1666.73 676.955 1662.27 674.189 1658.4 670.966 1655.13 667.743 1651.85 664.01 1649.25 659.766 1647.32 655.522 1645.38 650.715 1644.42 645.343 1644.42ZM1246.97 1644.42C1240.52 1644.42 1235.61 1645.84 1232.22 1648.69 1228.84 1651.53 1227.15 1655.1 1227.15 1659.4 1227.15 1662.4 1227.95 1665.22 1229.57 1667.85 1231.18 1670.48 1233.76 1672.77 1237.3 1674.7 1240.85 1676.63 1245.52 1678.16 1251.32 1679.29 1257.12 1680.42 1264.32 1680.98 1272.92 1680.98L1286.45 1680.98C1285.06 1675.93 1283.2 1671.18 1280.89 1666.73 1278.58 1662.27 1275.82 1658.4 1272.59 1655.13 1269.37 1651.85 1265.64 1649.25 1261.39 1647.32 1257.15 1645.38 1252.34 1644.42 1246.97 1644.42ZM541.992 1618.32C546.934 1618.32 550.828 1618.51 553.675 1618.89 556.523 1619.26 558.698 1619.85 560.202 1620.66 561.706 1621.46 562.673 1622.51 563.103 1623.8 563.533 1625.09 563.747 1626.75 563.747 1628.79 563.747 1629.87 563.721 1631.1 563.667 1632.5 563.613 1633.89 563.533 1635.13 563.425 1636.2L551.017 1766.19C550.909 1767.91 550.506 1769.33 549.808 1770.46 549.109 1771.59 547.874 1772.48 546.101 1773.12 544.329 1773.76 541.804 1774.22 538.527 1774.49 535.251 1774.76 531.034 1774.89 525.877 1774.89 520.613 1774.89 516.342 1774.76 513.066 1774.49 509.789 1774.22 507.157 1773.76 505.169 1773.12 503.182 1772.48 501.678 1771.56 500.657 1770.38 499.637 1769.2 498.696 1767.7 497.837 1765.87L458.194 1677.6 450.781 1766.19C450.674 1767.91 450.324 1769.33 449.733 1770.46 449.143 1771.59 448.068 1772.48 446.511 1773.12 444.953 1773.76 442.723 1774.22 439.823 1774.49 436.922 1774.76 433.216 1774.89 428.703 1774.89 425.051 1774.89 421.828 1774.84 419.034 1774.73 416.241 1774.62 413.743 1774.33 411.541 1773.84 409.338 1773.36 407.458 1772.66 405.9 1771.75 404.343 1770.84 403.081 1769.63 402.114 1768.13 394.808 1757.92 387.932 1747.35 381.487 1736.39 375.04 1725.44 368.997 1714.27 363.357 1702.89 357.717 1691.51 352.506 1679.99 347.726 1668.34 342.945 1656.69 338.567 1645.06 334.592 1633.46 334.162 1632.17 333.732 1630.62 333.302 1628.79 332.873 1626.97 332.658 1625.25 332.658 1623.64 332.658 1622.67 332.873 1621.87 333.302 1621.22 333.732 1620.58 334.619 1620.04 335.962 1619.61 337.304 1619.18 339.212 1618.86 341.683 1618.64 344.153 1618.43 347.377 1618.32 351.352 1618.32 355.542 1618.32 358.979 1618.43 361.665 1618.64 364.351 1618.86 366.553 1619.23 368.272 1619.77 369.991 1620.31 371.28 1621.01 372.14 1621.87 372.999 1622.72 373.536 1623.85 373.751 1625.25 376.544 1634.48 379.66 1643.88 383.098 1653.44 386.536 1662.99 390.188 1672.34 394.056 1681.46 397.924 1690.59 401.872 1699.34 405.9 1707.72 409.93 1716.1 413.931 1723.72 417.907 1730.59L418.873 1732.37 419.034 1730.59 427.414 1624.6C427.522 1623.53 427.844 1622.59 428.381 1621.78 428.918 1620.98 429.885 1620.33 431.282 1619.85 432.678 1619.37 434.612 1618.99 437.083 1618.72 439.554 1618.46 442.777 1618.32 446.752 1618.32 450.512 1618.32 453.655 1618.43 456.18 1618.64 458.704 1618.86 460.745 1619.23 462.303 1619.77 463.861 1620.31 465.043 1621.03 465.849 1621.95 466.654 1622.86 467.326 1623.96 467.863 1625.25L515.241 1730.92 516.208 1732.85 516.047 1730.92 522.976 1625.25C522.976 1623.96 523.191 1622.86 523.621 1621.95 524.051 1621.03 524.937 1620.31 526.28 1619.77 527.623 1619.23 529.53 1618.86 532.001 1618.64 534.472 1618.43 537.802 1618.32 541.992 1618.32ZM641.637 1615.58C652.917 1615.58 662.962 1617.25 671.772 1620.58 680.581 1623.91 688.343 1628.34 695.058 1633.87 701.773 1639.4 707.493 1645.81 712.22 1653.11 716.948 1660.42 720.815 1668.07 723.823 1676.07 726.831 1684.07 729.007 1692.18 730.35 1700.39 731.693 1708.61 732.364 1716.31 732.364 1723.51 732.364 1732.85 731.075 1740.93 728.497 1747.75 725.918 1754.57 722.05 1760.18 716.894 1764.58 711.737 1768.99 705.318 1772.26 697.636 1774.41 689.955 1776.56 680.957 1777.63 670.644 1777.63 664.412 1777.63 658.289 1777.28 652.273 1776.58 646.256 1775.88 640.831 1775 635.996 1773.92 631.162 1772.85 627.025 1771.67 623.588 1770.38 620.15 1769.09 617.786 1767.8 616.497 1766.52 615.315 1765.44 614.268 1763.88 613.355 1761.84 612.442 1759.8 611.689 1757.63 611.099 1755.32 610.508 1753.01 610.051 1750.68 609.729 1748.31 609.407 1745.95 609.245 1743.86 609.245 1742.03 609.245 1740.42 609.514 1739.24 610.051 1738.49 610.588 1737.74 611.501 1737.36 612.791 1737.36 614.08 1737.36 616.121 1737.87 618.914 1738.89 621.707 1739.91 625.226 1741.04 629.47 1742.27 633.714 1743.51 638.655 1744.64 644.296 1745.66 649.936 1746.68 656.301 1747.19 663.392 1747.19 673.383 1747.19 680.635 1744.98 685.147 1740.58 689.659 1736.18 691.915 1729.63 691.915 1720.93 691.915 1718.89 691.808 1716.66 691.593 1714.24 691.378 1711.83 691.056 1709.39 690.626 1706.92L675.8 1706.92C660.115 1706.92 646.605 1705.73 635.271 1703.37 623.937 1701.01 614.59 1697.6 607.231 1693.14 599.872 1688.69 594.446 1683.37 590.955 1677.2 587.463 1671.02 585.718 1664.07 585.718 1656.34 585.718 1651.18 586.819 1646.16 589.021 1641.28 591.224 1636.39 594.581 1632.04 599.093 1628.23 603.605 1624.42 609.38 1621.36 616.417 1619.05 623.453 1616.74 631.86 1615.58 641.637 1615.58ZM1243.26 1615.58C1254.54 1615.58 1264.59 1617.25 1273.4 1620.58 1282.21 1623.91 1289.97 1628.34 1296.69 1633.87 1303.4 1639.4 1309.12 1645.81 1313.85 1653.11 1318.57 1660.42 1322.44 1668.07 1325.45 1676.07 1328.46 1684.07 1330.63 1692.18 1331.98 1700.39 1333.32 1708.61 1333.99 1716.31 1333.99 1723.51 1333.99 1732.85 1332.7 1740.93 1330.12 1747.75 1327.55 1754.57 1323.68 1760.18 1318.52 1764.58 1313.36 1768.99 1306.94 1772.26 1299.26 1774.41 1291.58 1776.56 1282.58 1777.63 1272.27 1777.63 1266.04 1777.63 1259.92 1777.28 1253.9 1776.58 1247.88 1775.88 1242.46 1775 1237.62 1773.92 1232.79 1772.85 1228.65 1771.67 1225.21 1770.38 1221.78 1769.09 1219.41 1767.8 1218.12 1766.52 1216.94 1765.44 1215.9 1763.88 1214.98 1761.84 1214.07 1759.8 1213.32 1757.63 1212.73 1755.32 1212.14 1753.01 1211.68 1750.68 1211.36 1748.31 1211.03 1745.95 1210.87 1743.86 1210.87 1742.03 1210.87 1740.42 1211.14 1739.24 1211.68 1738.49 1212.22 1737.74 1213.13 1737.36 1214.42 1737.36 1215.71 1737.36 1217.75 1737.87 1220.54 1738.89 1223.33 1739.91 1226.85 1741.04 1231.1 1742.27 1235.34 1743.51 1240.28 1744.64 1245.92 1745.66 1251.56 1746.68 1257.93 1747.19 1265.02 1747.19 1275.01 1747.19 1282.26 1744.98 1286.77 1740.58 1291.29 1736.18 1293.54 1729.63 1293.54 1720.93 1293.54 1718.89 1293.44 1716.66 1293.22 1714.24 1293.01 1711.83 1292.68 1709.39 1292.25 1706.92L1277.43 1706.92C1261.74 1706.92 1248.23 1705.73 1236.9 1703.37 1225.56 1701.01 1216.22 1697.6 1208.86 1693.14 1201.5 1688.69 1196.07 1683.37 1192.58 1677.2 1189.09 1671.02 1187.34 1664.07 1187.34 1656.34 1187.34 1651.18 1188.45 1646.16 1190.65 1641.28 1192.85 1636.39 1196.21 1632.04 1200.72 1628.23 1205.23 1624.42 1211.01 1621.36 1218.04 1619.05 1225.08 1616.74 1233.49 1615.58 1243.26 1615.58ZM1488.48 1615.58C1494.5 1615.58 1500.33 1616.58 1505.97 1618.56 1511.61 1620.55 1516.82 1623.1 1521.6 1626.21 1526.38 1629.33 1530.65 1632.85 1534.41 1636.77 1538.17 1640.68 1541.18 1644.52 1543.43 1648.28L1538.76 1624.6C1538.54 1623.53 1538.63 1622.59 1539 1621.78 1539.38 1620.98 1540.16 1620.33 1541.34 1619.85 1542.52 1619.37 1544.16 1618.99 1546.25 1618.72 1548.35 1618.46 1551.06 1618.32 1554.39 1618.32 1557.61 1618.32 1560.38 1618.46 1562.69 1618.72 1565 1618.99 1566.88 1619.37 1568.33 1619.85 1569.78 1620.33 1570.86 1620.98 1571.55 1621.78 1572.25 1622.59 1572.71 1623.53 1572.92 1624.6L1601.77 1768.45C1601.98 1769.52 1601.88 1770.46 1601.45 1771.27 1601.02 1772.07 1600.08 1772.74 1598.63 1773.28 1597.18 1773.82 1595.19 1774.22 1592.66 1774.49 1590.14 1774.76 1586.89 1774.89 1582.91 1774.89 1579.05 1774.89 1575.77 1774.76 1573.08 1774.49 1570.4 1774.22 1568.22 1773.82 1566.56 1773.28 1564.89 1772.74 1563.66 1772.07 1562.85 1771.27 1562.05 1770.46 1561.54 1769.52 1561.32 1768.45L1548.27 1703.37C1546.87 1696.18 1544.53 1689.38 1541.26 1683 1537.98 1676.61 1534.22 1671.02 1529.98 1666.24 1525.73 1661.46 1521.3 1657.68 1516.68 1654.89 1512.06 1652.09 1507.6 1650.7 1503.31 1650.7 1498.58 1650.7 1495.25 1652.23 1493.32 1655.29 1491.38 1658.35 1490.41 1662.24 1490.41 1666.97 1490.41 1669.44 1490.55 1671.99 1490.82 1674.62 1491.09 1677.25 1491.54 1679.8 1492.19 1682.27L1509.27 1768.45C1509.48 1769.52 1509.35 1770.46 1508.87 1771.27 1508.38 1772.07 1507.44 1772.74 1506.05 1773.28 1504.65 1773.82 1502.69 1774.22 1500.16 1774.49 1497.64 1774.76 1494.44 1774.89 1490.58 1774.89 1486.6 1774.89 1483.3 1774.76 1480.66 1774.49 1478.03 1774.22 1475.86 1773.82 1474.14 1773.28 1472.42 1772.74 1471.16 1772.07 1470.35 1771.27 1469.55 1770.46 1469.04 1769.52 1468.82 1768.45L1455.77 1703.37C1454.37 1696.18 1452.03 1689.38 1448.76 1683 1445.48 1676.61 1441.72 1671.02 1437.48 1666.24 1433.23 1661.46 1428.8 1657.68 1424.18 1654.89 1419.56 1652.09 1415.1 1650.7 1410.81 1650.7 1405.97 1650.7 1402.61 1652.26 1400.73 1655.37 1398.85 1658.48 1397.91 1662.56 1397.91 1667.61 1397.91 1670.08 1398.08 1672.52 1398.4 1674.94 1398.72 1677.36 1399.1 1679.8 1399.53 1682.27L1416.77 1768.45C1417.09 1769.52 1417.01 1770.46 1416.53 1771.27 1416.04 1772.07 1415.1 1772.74 1413.71 1773.28 1412.31 1773.82 1410.32 1774.22 1407.74 1774.49 1405.17 1774.76 1401.94 1774.89 1398.08 1774.89 1394.1 1774.89 1390.8 1774.76 1388.16 1774.49 1385.53 1774.22 1383.36 1773.82 1381.64 1773.28 1379.92 1772.74 1378.66 1772.07 1377.85 1771.27 1377.05 1770.46 1376.54 1769.52 1376.32 1768.45L1358.59 1679.69C1357.73 1675.72 1357.09 1671.83 1356.66 1668.01 1356.23 1664.2 1356.02 1660.42 1356.02 1656.66 1356.02 1650.86 1356.71 1645.46 1358.11 1640.47 1359.51 1635.48 1361.76 1631.13 1364.88 1627.42 1367.99 1623.72 1372.1 1620.82 1377.21 1618.72 1382.31 1616.63 1388.62 1615.58 1396.14 1615.58 1402.05 1615.58 1407.8 1616.58 1413.38 1618.56 1418.97 1620.55 1424.15 1623.1 1428.94 1626.21 1433.72 1629.33 1438.01 1632.82 1441.83 1636.68 1445.64 1640.55 1448.78 1644.42 1451.26 1648.28 1451.68 1643.66 1452.68 1639.37 1454.24 1635.4 1455.79 1631.42 1458.05 1627.96 1461 1625.01 1463.96 1622.05 1467.72 1619.74 1472.29 1618.08 1476.85 1616.42 1482.25 1615.58 1488.48 1615.58ZM1928.21 1615.58C1937.77 1615.58 1946.34 1617.27 1953.91 1620.66 1961.48 1624.04 1968.2 1628.58 1974.05 1634.27 1979.91 1639.96 1984.93 1646.48 1989.12 1653.84 1993.31 1661.2 1996.75 1668.85 1999.43 1676.79 2002.12 1684.74 2004.11 1692.71 2005.4 1700.71 2006.69 1708.71 2007.33 1716.1 2007.33 1722.86 2007.33 1730.06 2006.61 1736.93 2005.16 1743.48 2003.7 1750.03 2001.26 1755.86 1997.82 1760.96 1994.39 1766.06 1989.82 1770.11 1984.12 1773.12 1978.43 1776.13 1971.29 1777.63 1962.69 1777.63 1956.46 1777.63 1950.42 1776.61 1944.56 1774.57 1938.71 1772.53 1933.36 1769.95 1928.53 1766.84 1923.69 1763.72 1919.5 1760.26 1915.96 1756.45 1912.41 1752.64 1909.83 1749.01 1908.22 1745.57L1912.74 1768.61C1912.95 1769.79 1912.87 1770.78 1912.49 1771.59 1912.12 1772.39 1911.29 1773.04 1910 1773.52 1908.71 1774.01 1907.01 1774.35 1904.92 1774.57 1902.82 1774.78 1900.11 1774.89 1896.78 1774.89 1890.23 1774.89 1885.47 1774.41 1882.52 1773.44 1879.57 1772.48 1877.87 1770.86 1877.44 1768.61L1848.6 1624.6C1848.38 1623.53 1848.49 1622.59 1848.92 1621.78 1849.35 1620.98 1850.18 1620.33 1851.42 1619.85 1852.65 1619.37 1854.35 1618.99 1856.49 1618.72 1858.64 1618.46 1861.33 1618.32 1864.55 1618.32 1871.11 1618.32 1875.86 1618.8 1878.81 1619.77 1881.77 1620.74 1883.46 1622.35 1883.89 1624.6L1886.47 1637.33C1891.62 1630.24 1897.64 1624.85 1904.52 1621.14 1911.39 1617.44 1919.29 1615.58 1928.21 1615.58ZM834.318 1596.58C826.906 1596.58 820.567 1597.57 815.303 1599.56 810.039 1601.54 805.795 1604.36 802.572 1608.01 799.349 1611.66 797.012 1616.15 795.562 1621.46 794.111 1626.78 793.386 1632.71 793.386 1639.26 793.386 1644.95 793.843 1651.45 794.756 1658.75 795.669 1666.06 797.2 1673.52 799.349 1681.14 801.497 1688.77 804.372 1696.28 807.97 1703.69 811.569 1711.1 815.974 1717.68 821.185 1723.43 826.395 1729.17 832.546 1733.82 839.636 1737.36 846.727 1740.9 854.892 1742.68 864.131 1742.68 871.651 1742.68 878.017 1741.71 883.227 1739.78 888.438 1737.84 892.682 1735.08 895.958 1731.48 899.235 1727.88 901.599 1723.45 903.049 1718.19 904.499 1712.93 905.224 1706.97 905.224 1700.31 905.224 1694.83 904.768 1688.45 903.855 1681.14 902.942 1673.84 901.41 1666.35 899.262 1658.67 897.113 1650.99 894.266 1643.42 890.721 1635.96 887.176 1628.5 882.798 1621.87 877.587 1616.07 872.377 1610.27 866.199 1605.57 859.055 1601.97 851.911 1598.37 843.665 1596.58 834.318 1596.58ZM2057.07 1562.1C2070.5 1562.1 2082.72 1564.14 2093.73 1568.23 2104.75 1572.31 2114.58 1577.81 2123.22 1584.74 2131.87 1591.66 2139.37 1599.74 2145.71 1608.98 2152.04 1618.21 2157.28 1627.99 2161.42 1638.3 2165.55 1648.6 2168.64 1659.16 2170.68 1669.95 2172.72 1680.74 2173.75 1691.13 2173.75 1701.12 2173.75 1713.9 2171.97 1725.06 2168.43 1734.62 2164.88 1744.18 2159.83 1752.13 2153.28 1758.46 2146.73 1764.8 2138.75 1769.52 2129.35 1772.64 2119.95 1775.75 2109.39 1777.31 2097.68 1777.31 2090.59 1777.31 2083.93 1776.74 2077.7 1775.62 2071.47 1774.49 2065.88 1773.12 2060.94 1771.51 2056 1769.9 2051.81 1768.15 2048.37 1766.27 2044.93 1764.39 2042.62 1762.86 2041.44 1761.68 2040.26 1760.5 2039.32 1759.13 2038.62 1757.58 2037.92 1756.02 2037.3 1754.3 2036.77 1752.42 2036.23 1750.54 2035.75 1748.5 2035.32 1746.3 2034.89 1744.1 2034.51 1742.06 2034.19 1740.18 2033.87 1738.3 2033.6 1736.61 2033.38 1735.1 2033.17 1733.6 2033.06 1732.47 2033.06 1731.72 2033.06 1729.9 2033.3 1728.47 2033.79 1727.45 2034.27 1726.43 2035.21 1725.92 2036.61 1725.92 2038.65 1725.92 2040.93 1726.73 2043.46 1728.34 2045.98 1729.95 2049.15 1731.72 2052.96 1733.65 2056.78 1735.59 2061.4 1737.36 2066.82 1738.97 2072.25 1740.58 2078.77 1741.39 2086.4 1741.39 2092.85 1741.39 2098.65 1740.45 2103.81 1738.57 2108.96 1736.69 2113.31 1733.87 2116.86 1730.11 2120.4 1726.35 2123.12 1721.63 2125 1715.94 2126.88 1710.24 2127.82 1703.64 2127.82 1696.12 2127.82 1689.89 2127.2 1683.16 2125.96 1675.91 2124.73 1668.66 2122.85 1661.38 2120.32 1654.08 2117.8 1646.78 2114.6 1639.75 2110.74 1632.98 2106.87 1626.21 2102.36 1620.23 2097.2 1615.02 2092.04 1609.81 2086.19 1605.62 2079.63 1602.46 2073.08 1599.29 2065.83 1597.7 2057.88 1597.7 2050.68 1597.7 2044.66 1598.59 2039.83 1600.36 2034.99 1602.13 2031.02 1604.04 2027.9 1606.08 2024.79 1608.12 2022.26 1610.03 2020.33 1611.8 2018.4 1613.57 2016.73 1614.46 2015.33 1614.46 2013.4 1614.46 2011.65 1612.93 2010.1 1609.86 2008.54 1606.8 2007.25 1602.75 2006.23 1597.7 2005.21 1592.66 2004.7 1588.63 2004.7 1585.62 2004.7 1582.4 2005.69 1579.74 2007.68 1577.65 2009.67 1575.55 2013.16 1573.22 2018.15 1570.64 2023.15 1568.06 2029.01 1566 2035.72 1564.44 2042.43 1562.88 2049.55 1562.1 2057.07 1562.1ZM828.678 1561.78C843.934 1561.78 857.497 1563.9 869.368 1568.14 881.24 1572.39 891.661 1578.16 900.632 1585.46 909.603 1592.76 917.23 1601.19 923.515 1610.75 929.8 1620.31 934.903 1630.38 938.824 1640.95 942.745 1651.53 945.592 1662.32 947.365 1673.33 949.138 1684.34 950.024 1694.89 950.024 1704.98 950.024 1717.33 948.279 1728.07 944.787 1737.2 941.295 1746.33 936.165 1753.9 929.397 1759.91 922.629 1765.92 914.249 1770.38 904.257 1773.28 894.266 1776.18 882.771 1777.63 869.771 1777.63 861.391 1777.63 853.791 1776.96 846.969 1775.62 840.147 1774.27 833.889 1772.31 828.195 1769.74 824.542 1774.89 820.621 1779.48 816.431 1783.51 812.241 1787.54 808.051 1791.11 803.861 1794.22 799.671 1797.34 795.562 1799.97 791.533 1802.11 787.504 1804.26 783.825 1806.01 780.494 1807.35 777.164 1808.69 774.29 1809.66 771.873 1810.25 769.455 1810.84 767.71 1811.13 766.635 1811.13 765.346 1811.13 764.191 1810.57 763.171 1809.44 762.15 1808.32 761.21 1806.87 760.351 1805.09 759.491 1803.32 758.739 1801.34 758.094 1799.13 757.45 1796.93 756.913 1794.76 756.483 1792.61 756.053 1790.46 755.731 1788.48 755.516 1786.65 755.301 1784.82 755.194 1783.43 755.194 1782.46 755.194 1780.85 755.301 1779.67 755.516 1778.92 755.731 1778.17 756.214 1777.42 756.966 1776.66 757.718 1775.91 759.196 1775.16 761.398 1774.41 763.6 1773.66 766.34 1772.45 769.617 1770.78 772.893 1769.12 776.681 1766.84 780.978 1763.94 785.275 1761.04 789.948 1756.96 794.998 1751.7 789.197 1746.43 784.013 1740.82 779.447 1734.86 774.881 1728.9 770.906 1722.62 767.522 1716.02 764.137 1709.41 761.237 1702.65 758.82 1695.72 756.402 1688.79 754.442 1681.89 752.938 1675.02 751.433 1668.15 750.332 1661.33 749.634 1654.56 748.936 1647.8 748.586 1641.36 748.586 1635.23 748.586 1622.78 750.332 1611.93 753.824 1602.7 757.316 1593.46 762.445 1585.81 769.214 1579.74 775.982 1573.68 784.362 1569.16 794.353 1566.21 804.344 1563.26 815.786 1561.78 828.678 1561.78ZM1689.06 1549.7C1693.03 1549.7 1696.34 1549.86 1698.97 1550.18 1701.6 1550.51 1703.78 1550.96 1705.5 1551.55 1707.22 1552.14 1708.45 1552.87 1709.2 1553.73 1709.95 1554.59 1710.44 1555.55 1710.65 1556.63L1753.04 1768.45C1753.25 1769.52 1753.12 1770.46 1752.63 1771.27 1752.15 1772.07 1751.21 1772.74 1749.81 1773.28 1748.42 1773.82 1746.46 1774.22 1743.93 1774.49 1741.41 1774.76 1738.1 1774.89 1734.02 1774.89 1730.15 1774.89 1726.88 1774.76 1724.19 1774.49 1721.5 1774.22 1719.36 1773.82 1717.74 1773.28 1716.13 1772.74 1714.92 1772.07 1714.12 1771.27 1713.31 1770.46 1712.8 1769.52 1712.59 1768.45L1670.37 1556.63C1670.15 1555.55 1670.26 1554.59 1670.69 1553.73 1671.12 1552.87 1672.03 1552.14 1673.43 1551.55 1674.82 1550.96 1676.78 1550.51 1679.31 1550.18 1681.83 1549.86 1685.08 1549.7 1689.06 1549.7ZM1771.57 1549.7C1775.54 1549.7 1778.85 1549.86 1781.48 1550.18 1784.11 1550.51 1786.29 1550.96 1788.01 1551.55 1789.72 1552.14 1790.96 1552.87 1791.71 1553.73 1792.46 1554.59 1792.95 1555.55 1793.16 1556.63L1835.54 1768.45C1835.76 1769.52 1835.63 1770.46 1835.14 1771.27 1834.66 1772.07 1833.72 1772.74 1832.32 1773.28 1830.92 1773.82 1828.96 1774.22 1826.44 1774.49 1823.91 1774.76 1820.61 1774.89 1816.53 1774.89 1812.66 1774.89 1809.38 1774.76 1806.7 1774.49 1804.01 1774.22 1801.86 1773.82 1800.25 1773.28 1798.64 1772.74 1797.43 1772.07 1796.63 1771.27 1795.82 1770.46 1795.31 1769.52 1795.1 1768.45L1752.87 1556.63C1752.66 1555.55 1752.77 1554.59 1753.2 1553.73 1753.63 1552.87 1754.54 1552.14 1755.94 1551.55 1757.33 1550.96 1759.29 1550.51 1761.82 1550.18 1764.34 1549.86 1767.59 1549.7 1771.57 1549.7ZM188.59 1548.41C192.35 1548.41 195.519 1548.6 198.098 1548.98 200.676 1549.35 202.852 1550.13 204.624 1551.31 206.397 1552.49 207.82 1554.18 208.894 1556.39 209.969 1558.59 210.828 1561.51 211.473 1565.16L216.146 1588.68 243.864 1632.5C244.831 1634.11 245.422 1635.42 245.637 1636.44 245.852 1637.46 245.583 1638.32 244.831 1639.02 244.079 1639.72 242.844 1640.2 241.125 1640.47 239.406 1640.74 237.15 1640.87 234.356 1640.87 229.414 1640.87 225.574 1640.42 222.834 1639.5 220.094 1638.59 217.758 1637.06 215.824 1634.91L189.556 1604.15C183.648 1597.38 179.109 1590.16 175.939 1582.48 172.77 1574.8 171.078 1567.1 170.863 1559.37 170.863 1557.33 171.105 1555.63 171.589 1554.29 172.072 1552.95 172.958 1551.82 174.247 1550.91 175.536 1550 177.336 1549.35 179.646 1548.98 181.956 1548.6 184.937 1548.41 188.59 1548.41ZM251.922 1548.41C255.682 1548.41 258.851 1548.6 261.429 1548.98 264.008 1549.35 266.184 1550.13 267.956 1551.31 269.729 1552.49 271.152 1554.18 272.227 1556.39 273.301 1558.59 274.16 1561.51 274.805 1565.16L279.639 1588.68 307.357 1632.5C308.217 1634.11 308.754 1635.42 308.969 1636.44 309.184 1637.46 308.942 1638.32 308.244 1639.02 307.546 1639.72 306.337 1640.2 304.618 1640.47 302.899 1640.74 300.589 1640.87 297.689 1640.87 292.747 1640.87 288.906 1640.42 286.166 1639.5 283.427 1638.59 281.143 1637.06 279.317 1634.91L252.889 1604.15C246.98 1597.38 242.414 1590.16 239.191 1582.48 235.968 1574.8 234.303 1567.1 234.195 1559.37 234.195 1557.33 234.437 1555.63 234.92 1554.29 235.404 1552.95 236.317 1551.82 237.66 1550.91 239.003 1550 240.829 1549.35 243.139 1548.98 245.449 1548.6 248.376 1548.41 251.922 1548.41ZM949.165 1548.41C954.107 1548.41 957.948 1548.9 960.687 1549.86 963.426 1550.83 965.709 1552.33 967.536 1554.37L993.964 1585.14C999.873 1591.9 1004.41 1599.15 1007.58 1606.88 1010.75 1614.62 1012.44 1622.35 1012.66 1630.08 1012.66 1632.01 1012.42 1633.68 1011.93 1635.07 1011.45 1636.47 1010.54 1637.6 1009.19 1638.46 1007.85 1639.32 1006.05 1639.93 1003.79 1640.31 1001.54 1640.68 998.584 1640.87 994.931 1640.87 991.171 1640.87 988.002 1640.68 985.423 1640.31 982.845 1639.93 980.67 1639.15 978.897 1637.97 977.124 1636.79 975.701 1635.1 974.627 1632.9 973.552 1630.7 972.693 1627.77 972.048 1624.12L967.214 1600.6 939.496 1556.79C938.636 1555.29 938.099 1554 937.884 1552.92 937.669 1551.85 937.938 1550.99 938.69 1550.35 939.442 1549.7 940.678 1549.22 942.396 1548.9 944.115 1548.57 946.371 1548.41 949.165 1548.41ZM1012.5 1548.41C1017.44 1548.41 1021.28 1548.9 1024.02 1549.86 1026.76 1550.83 1029.04 1552.33 1030.87 1554.37L1057.46 1585.14C1063.26 1591.9 1067.74 1599.15 1070.91 1606.88 1074.08 1614.62 1075.78 1622.35 1075.99 1630.08 1075.99 1632.01 1075.75 1633.68 1075.26 1635.07 1074.78 1636.47 1073.87 1637.6 1072.53 1638.46 1071.18 1639.32 1069.38 1639.93 1067.13 1640.31 1064.87 1640.68 1061.92 1640.87 1058.26 1640.87 1054.5 1640.87 1051.33 1640.68 1048.76 1640.31 1046.18 1639.93 1044 1639.15 1042.23 1637.97 1040.46 1636.79 1039.03 1635.1 1037.96 1632.9 1036.88 1630.7 1036.02 1627.77 1035.38 1624.12L1030.55 1600.6 1002.99 1556.79C1002.02 1555.29 1001.43 1554 1001.22 1552.92 1001 1551.85 1001.27 1550.99 1002.02 1550.35 1002.77 1549.7 1003.98 1549.22 1005.65 1548.9 1007.31 1548.57 1009.6 1548.41 1012.5 1548.41ZM2732.48 1417.46 157.203 1417.46 0 2046 2575.28 2046ZM399.433 836.753C405.019 836.753 409.37 837.264 412.486 838.284 415.602 839.304 418.019 840.646 419.738 842.311 421.457 843.975 422.88 846.043 424.008 848.513 425.136 850.982 426.049 853.586 426.748 856.325 427.446 859.063 427.983 861.721 428.359 864.298 428.735 866.876 428.923 869.023 428.923 870.741 428.923 873.426 428.601 875.762 427.956 877.749 427.312 879.735 426.21 881.373 424.653 882.661 423.095 883.95 421 884.917 418.368 885.561 415.736 886.205 412.432 886.527 408.457 886.527 403.086 886.527 398.761 886.017 395.485 884.997 392.208 883.977 389.737 882.635 388.072 880.97 386.407 879.306 385.01 877.211 383.882 874.688 382.754 872.164 381.84 869.533 381.142 866.795 380.444 864.057 379.934 861.399 379.611 858.822 379.289 856.244 379.128 854.15 379.128 852.539 379.128 850.177 379.369 848.002 379.853 846.016 380.337 844.029 381.33 842.365 382.834 841.022 384.338 839.68 386.433 838.633 389.119 837.881 391.805 837.129 395.243 836.753 399.433 836.753ZM1229.46 760.562C1223.45 760.562 1218.16 762.039 1213.59 764.992 1209.02 767.945 1204.86 772.375 1201.1 778.281L1205.61 800.027C1207.12 807.437 1209.51 814.39 1212.78 820.887 1216.06 827.384 1219.85 833.076 1224.15 837.962 1228.44 842.848 1233.06 846.714 1238 849.559 1242.95 852.405 1247.78 853.828 1252.51 853.828 1255.84 853.828 1258.58 853.157 1260.73 851.815 1262.88 850.472 1264.59 848.673 1265.88 846.418 1267.17 844.163 1268.06 841.586 1268.54 838.686 1269.03 835.787 1269.27 832.726 1269.27 829.505 1269.27 825.102 1268.92 820.296 1268.22 815.088 1267.52 809.88 1266.45 804.725 1265 799.625 1263.55 794.524 1261.72 789.611 1259.52 784.886 1257.32 780.16 1254.76 775.999 1251.86 772.402 1248.96 768.804 1245.63 765.932 1241.87 763.784 1238.11 761.636 1233.98 760.562 1229.46 760.562ZM2109.56 760.562C2103.54 760.562 2098.25 762.039 2093.69 764.992 2089.12 767.945 2084.96 772.375 2081.2 778.281L2085.71 800.027C2087.21 807.437 2089.6 814.39 2092.88 820.887 2096.16 827.384 2099.94 833.076 2104.24 837.962 2108.54 842.848 2113.16 846.714 2118.1 849.559 2123.04 852.405 2127.88 853.828 2132.6 853.828 2135.93 853.828 2138.67 853.157 2140.82 851.815 2142.97 850.472 2144.69 848.673 2145.98 846.418 2147.27 844.163 2148.15 841.586 2148.64 838.686 2149.12 835.787 2149.36 832.726 2149.36 829.505 2149.36 825.102 2149.01 820.296 2148.32 815.088 2147.62 809.88 2146.54 804.725 2145.09 799.625 2143.64 794.524 2141.82 789.611 2139.61 784.886 2137.41 780.16 2134.86 775.999 2131.96 772.402 2129.06 768.804 2125.73 765.932 2121.97 763.784 2118.21 761.636 2114.07 760.562 2109.56 760.562ZM2401.78 760.562C2395.76 760.562 2390.47 762.039 2385.9 764.992 2381.34 767.945 2377.18 772.375 2373.42 778.281L2377.93 800.027C2379.43 807.437 2381.82 814.39 2385.1 820.887 2388.38 827.384 2392.16 833.076 2396.46 837.962 2400.76 842.848 2405.38 846.714 2410.32 849.559 2415.26 852.405 2420.09 853.828 2424.82 853.828 2428.15 853.828 2430.89 853.157 2433.04 851.815 2435.19 850.472 2436.91 848.673 2438.2 846.418 2439.49 844.163 2440.37 841.586 2440.86 838.686 2441.34 835.787 2441.58 832.726 2441.58 829.505 2441.58 825.102 2441.23 820.296 2440.53 815.088 2439.84 809.88 2438.76 804.725 2437.31 799.625 2435.86 794.524 2434.03 789.611 2431.83 784.886 2429.63 780.16 2427.08 775.999 2424.18 772.402 2421.28 768.804 2417.95 765.932 2414.19 763.784 2410.43 761.636 2406.29 760.562 2401.78 760.562ZM774.268 760.402C771.26 760.402 768.709 760.938 766.613 762.012 764.519 763.086 762.8 764.67 761.457 766.764 760.114 768.858 759.147 771.408 758.556 774.416 757.965 777.422 757.67 780.751 757.67 784.402 757.67 789.02 758.019 793.933 758.717 799.141 759.415 804.349 760.49 809.531 761.94 814.685 763.391 819.84 765.217 824.78 767.419 829.505 769.622 834.23 772.2 838.391 775.155 841.989 778.109 845.586 781.439 848.459 785.146 850.607 788.852 852.754 792.908 853.828 797.313 853.828 803.329 853.828 808.62 852.352 813.186 849.398 817.752 846.445 821.915 842.015 825.675 836.109L821.163 814.202C819.766 806.793 817.403 799.839 814.072 793.342 810.742 786.846 806.928 781.154 802.631 776.268 798.333 771.382 793.741 767.516 788.852 764.67 783.964 761.824 779.103 760.402 774.268 760.402ZM608.445 757.985C603.718 757.985 599.716 758.629 596.439 759.918 593.162 761.207 590.476 763.059 588.382 765.475 586.286 767.892 584.782 770.845 583.869 774.335 582.956 777.825 582.5 781.825 582.5 786.336 582.5 791.168 582.876 796.215 583.627 801.477 584.38 806.739 585.561 811.974 587.173 817.182 588.784 822.391 590.825 827.33 593.296 832.002 595.767 836.673 598.695 840.807 602.079 844.405 605.463 848.002 609.304 850.848 613.601 852.942 617.899 855.036 622.733 856.083 628.105 856.083 632.832 856.083 636.834 855.439 640.111 854.15 643.388 852.862 646.073 851.009 648.168 848.593 650.263 846.177 651.767 843.197 652.68 839.653 653.594 836.109 654.05 832.082 654.05 827.572 654.05 822.739 653.674 817.665 652.922 812.35 652.17 807.034 650.988 801.799 649.377 796.645 647.765 791.49 645.724 786.577 643.253 781.906 640.782 777.234 637.854 773.127 634.47 769.583 631.086 766.039 627.246 763.22 622.948 761.126 618.651 759.032 613.816 757.985 608.445 757.985ZM1680.42 728.83C1684.39 728.83 1687.69 728.991 1690.33 729.313 1692.96 729.635 1695.11 730.091 1696.77 730.682 1698.44 731.273 1699.67 731.971 1700.48 732.776 1701.28 733.582 1701.79 734.521 1702.01 735.595L1730.53 878.956C1730.75 880.031 1730.64 880.97 1730.21 881.776 1729.78 882.581 1728.84 883.252 1727.39 883.789 1725.94 884.326 1723.95 884.729 1721.43 884.997 1718.9 885.265 1715.65 885.4 1711.68 885.4 1707.81 885.4 1704.53 885.265 1701.85 884.997 1699.16 884.729 1696.99 884.326 1695.32 883.789 1693.66 883.252 1692.42 882.581 1691.62 881.776 1690.81 880.97 1690.3 880.031 1690.08 878.956L1661.56 735.595C1661.35 734.521 1661.45 733.582 1661.88 732.776 1662.31 731.971 1663.25 731.273 1664.7 730.682 1666.15 730.091 1668.14 729.635 1670.67 729.313 1673.19 728.991 1676.44 728.83 1680.42 728.83ZM421.672 726.091C425.647 726.091 429.675 726.897 433.758 728.508 437.84 730.118 441.789 732.347 445.602 735.192 449.416 738.038 453.015 741.394 456.399 745.26 459.784 749.126 462.765 753.367 465.343 757.985L460.831 735.112C460.616 734.038 460.697 733.098 461.073 732.293 461.449 731.488 462.228 730.843 463.409 730.36 464.591 729.877 466.229 729.501 468.325 729.232 470.419 728.964 473.132 728.83 476.463 728.83 479.686 728.83 482.452 728.964 484.762 729.232 487.072 729.501 488.952 729.877 490.402 730.36 491.852 730.843 492.954 731.488 493.706 732.293 494.458 733.098 494.941 734.038 495.156 735.112L523.841 878.956C524.056 880.031 523.948 880.97 523.519 881.776 523.089 882.581 522.149 883.252 520.698 883.789 519.248 884.326 517.26 884.729 514.736 884.997 512.211 885.265 508.961 885.4 504.986 885.4 501.119 885.4 497.842 885.265 495.156 884.997 492.47 884.729 490.295 884.326 488.63 883.789 486.964 883.252 485.729 882.581 484.923 881.776 484.117 880.97 483.607 880.031 483.392 878.956L470.5 814.363C469.211 807.705 467.089 801.343 464.135 795.275 461.18 789.208 457.823 783.892 454.063 779.329 450.303 774.764 446.354 771.086 442.218 768.294 438.082 765.502 434.187 764.106 430.535 764.106 428.708 764.106 427.097 764.294 425.7 764.67 424.304 765.046 423.014 765.422 421.833 765.798 420.651 766.174 419.577 766.549 418.61 766.925 417.643 767.301 416.676 767.489 415.709 767.489 414.527 767.489 413.426 766.737 412.406 765.234 411.385 763.73 410.472 761.797 409.666 759.435 408.86 757.072 408.135 754.522 407.49 751.784 406.846 749.045 406.309 746.388 405.879 743.81 405.449 741.233 405.127 738.978 404.912 737.045 404.697 735.112 404.59 733.77 404.59 733.018 404.59 731.622 404.912 730.602 405.557 729.957 406.201 729.42 407.088 728.91 408.215 728.427 409.343 727.944 410.633 727.541 412.083 727.219 413.533 726.897 415.091 726.628 416.757 726.413 418.422 726.199 420.06 726.091 421.672 726.091ZM604.094 726.091C615.159 726.091 625.097 727.595 633.906 730.602 642.716 733.608 650.532 737.689 657.354 742.844 664.176 747.998 670.031 754.039 674.919 760.965 679.807 767.892 683.809 775.221 686.925 782.953 690.04 790.685 692.323 798.631 693.773 806.793 695.224 814.954 695.949 822.901 695.949 830.633 695.949 839.868 694.66 848.056 692.081 855.197 689.503 862.338 685.582 868.352 680.318 873.238 675.053 878.124 668.473 881.829 660.577 884.353 652.68 886.876 643.307 888.138 632.456 888.138 621.39 888.138 611.453 886.635 602.643 883.628 593.834 880.621 586.018 876.513 579.196 871.305 572.374 866.097 566.519 860.083 561.63 853.264 556.742 846.445 552.74 839.143 549.625 831.357 546.509 823.572 544.226 815.598 542.776 807.437 541.326 799.275 540.6 791.329 540.6 783.597 540.6 774.362 541.89 766.174 544.468 759.032 547.046 751.891 550.968 745.877 556.232 740.991 561.496 736.105 568.077 732.4 575.973 729.877 583.869 727.353 593.243 726.091 604.094 726.091ZM760.409 726.091C766.641 726.091 772.684 727.111 778.539 729.152 784.394 731.192 789.765 733.796 794.654 736.964 799.542 740.132 803.732 743.622 807.223 747.435 810.715 751.247 813.267 754.925 814.878 758.469L810.366 735.112C810.151 734.038 810.258 733.098 810.688 732.293 811.118 731.488 811.95 730.843 813.186 730.36 814.421 729.877 816.087 729.501 818.182 729.232 820.277 728.964 822.989 728.83 826.32 728.83 832.98 728.83 837.761 729.313 840.662 730.279 843.563 731.246 845.228 732.857 845.658 735.112L885.945 935.979C886.16 937.053 886.053 938.019 885.623 938.878 885.193 939.738 884.253 940.462 882.803 941.053 881.352 941.644 879.392 942.1 876.921 942.422 874.45 942.744 871.227 942.906 867.252 942.906 863.277 942.906 859.946 942.744 857.261 942.422 854.575 942.1 852.399 941.644 850.734 941.053 849.069 940.462 847.833 939.738 847.028 938.878 846.222 938.019 845.712 937.053 845.496 935.979L832.766 871.063C830.832 873.426 828.576 875.654 825.997 877.749 823.419 879.843 820.545 881.668 817.376 883.225 814.207 884.782 810.742 885.991 806.982 886.85 803.222 887.709 799.193 888.138 794.895 888.138 785.441 888.138 776.927 886.474 769.353 883.145 761.779 879.815 755.064 875.359 749.209 869.775 743.354 864.191 738.332 857.721 734.142 850.365 729.952 843.009 726.514 835.358 723.828 827.411 721.142 819.464 719.155 811.464 717.866 803.41 716.576 795.356 715.932 787.839 715.932 780.859 715.932 773.234 716.711 766.093 718.268 759.435 719.826 752.777 722.351 746.978 725.843 742.038 729.334 737.098 733.9 733.206 739.54 730.36 745.181 727.514 752.137 726.091 760.409 726.091ZM1025.93 726.091C1031.95 726.091 1037.78 727.085 1043.42 729.071 1049.06 731.058 1054.27 733.608 1059.05 736.722 1063.83 739.837 1068.1 743.354 1071.86 747.273 1075.62 751.193 1078.63 755.032 1080.88 758.791L1076.21 735.112C1076 734.038 1076.08 733.098 1076.45 732.293 1076.83 731.488 1077.61 730.843 1078.79 730.36 1079.97 729.877 1081.61 729.501 1083.7 729.232 1085.8 728.964 1088.51 728.83 1091.84 728.83 1095.06 728.83 1097.83 728.964 1100.14 729.232 1102.45 729.501 1104.33 729.877 1105.78 730.36 1107.23 730.843 1108.31 731.488 1109 732.293 1109.7 733.098 1110.16 734.038 1110.37 735.112L1139.22 878.956C1139.43 880.031 1139.33 880.97 1138.9 881.776 1138.47 882.581 1137.53 883.252 1136.08 883.789 1134.63 884.326 1132.64 884.729 1130.11 884.997 1127.59 885.265 1124.34 885.4 1120.37 885.4 1116.5 885.4 1113.22 885.265 1110.53 884.997 1107.85 884.729 1105.67 884.326 1104.01 883.789 1102.34 883.252 1101.11 882.581 1100.3 881.776 1099.5 880.97 1098.99 880.031 1098.77 878.956L1085.72 813.88C1084.32 806.685 1081.98 799.893 1078.71 793.503 1075.43 787.114 1071.67 781.53 1067.43 776.751 1063.18 771.972 1058.75 768.187 1054.13 765.395 1049.51 762.603 1045.05 761.207 1040.76 761.207 1036.03 761.207 1032.7 762.737 1030.77 765.798 1028.83 768.858 1027.86 772.751 1027.86 777.476 1027.86 779.946 1028 782.496 1028.27 785.127 1028.54 787.758 1028.99 790.309 1029.64 792.779L1046.72 878.956C1046.93 880.031 1046.8 880.97 1046.32 881.776 1045.83 882.581 1044.89 883.252 1043.5 883.789 1042.1 884.326 1040.14 884.729 1037.61 884.997 1035.09 885.265 1031.89 885.4 1028.03 885.4 1024.05 885.4 1020.75 885.265 1018.12 884.997 1015.48 884.729 1013.31 884.326 1011.59 883.789 1009.87 883.252 1008.61 882.581 1007.8 881.776 1007 880.97 1006.49 880.031 1006.27 878.956L993.218 813.88C991.821 806.685 989.484 799.893 986.208 793.503 982.931 787.114 979.171 781.53 974.927 776.751 970.683 771.972 966.252 768.187 961.632 765.395 957.013 762.603 952.554 761.207 948.257 761.207 943.422 761.207 940.065 762.764 938.185 765.878 936.305 768.992 935.365 773.073 935.365 778.12 935.365 780.59 935.526 783.033 935.848 785.449 936.17 787.866 936.546 790.309 936.976 792.779L954.219 878.956C954.542 880.031 954.461 880.97 953.978 881.776 953.494 882.581 952.554 883.252 951.157 883.789 949.761 884.326 947.773 884.729 945.195 884.997 942.617 885.265 939.393 885.4 935.526 885.4 931.551 885.4 928.247 885.265 925.615 884.997 922.983 884.729 920.807 884.326 919.089 883.789 917.369 883.252 916.107 882.581 915.302 881.776 914.496 880.97 913.985 880.031 913.771 878.956L896.044 790.201C895.184 786.228 894.54 782.335 894.11 778.523 893.68 774.711 893.466 770.925 893.466 767.167 893.466 761.368 894.164 755.972 895.56 750.978 896.957 745.985 899.213 741.635 902.329 737.931 905.445 734.226 909.554 731.326 914.657 729.232 919.76 727.138 926.072 726.091 933.592 726.091 939.501 726.091 945.249 727.085 950.835 729.071 956.422 731.058 961.605 733.608 966.386 736.722 971.167 739.837 975.464 743.327 979.278 747.193 983.092 751.059 986.234 754.925 988.705 758.791 989.135 754.173 990.129 749.877 991.687 745.904 993.244 741.931 995.501 738.468 998.455 735.515 1001.41 732.561 1005.17 730.253 1009.74 728.588 1014.3 726.923 1019.7 726.091 1025.93 726.091ZM1231.88 726.091C1241.44 726.091 1250.01 727.783 1257.58 731.165 1265.16 734.548 1271.87 739.085 1277.73 744.777 1283.58 750.468 1288.61 756.992 1292.8 764.348 1296.99 771.704 1300.42 779.355 1303.11 787.302 1305.8 795.248 1307.78 803.222 1309.07 811.222 1310.36 819.223 1311.01 826.606 1311.01 833.371 1311.01 840.566 1310.28 847.438 1308.83 853.989 1307.38 860.54 1304.94 866.365 1301.5 871.466 1298.06 876.567 1293.49 880.621 1287.8 883.628 1282.11 886.635 1274.96 888.138 1266.37 888.138 1260.14 888.138 1254.09 887.118 1248.24 885.078 1242.38 883.037 1237.04 880.46 1232.2 877.346 1227.37 874.231 1223.18 870.768 1219.63 866.956 1216.09 863.144 1213.51 859.519 1211.9 856.083L1216.41 879.118C1216.63 880.299 1216.54 881.292 1216.17 882.098 1215.79 882.903 1214.96 883.547 1213.67 884.03 1212.38 884.514 1210.69 884.863 1208.59 885.078 1206.5 885.292 1203.79 885.4 1200.46 885.4 1193.9 885.4 1189.15 884.917 1186.2 883.95 1183.24 882.984 1181.55 881.373 1181.12 879.118L1152.27 735.112C1152.06 734.038 1152.17 733.098 1152.6 732.293 1153.02 731.488 1153.86 730.843 1155.09 730.36 1156.33 729.877 1158.02 729.501 1160.17 729.232 1162.32 728.964 1165 728.83 1168.23 728.83 1174.78 728.83 1179.53 729.313 1182.49 730.279 1185.44 731.246 1187.13 732.857 1187.56 735.112L1190.14 747.837C1195.3 740.75 1201.32 735.353 1208.19 731.648 1215.07 727.944 1222.96 726.091 1231.88 726.091ZM2111.98 726.091C2121.54 726.091 2130.11 727.783 2137.68 731.165 2145.25 734.548 2151.97 739.085 2157.82 744.777 2163.68 750.468 2168.7 756.992 2172.89 764.348 2177.08 771.704 2180.52 779.355 2183.2 787.302 2185.89 795.248 2187.88 803.222 2189.17 811.222 2190.46 819.223 2191.1 826.606 2191.1 833.371 2191.1 840.566 2190.38 847.438 2188.93 853.989 2187.47 860.54 2185.03 866.365 2181.59 871.466 2178.16 876.567 2173.59 880.621 2167.9 883.628 2162.2 886.635 2155.06 888.138 2146.46 888.138 2140.23 888.138 2134.19 887.118 2128.33 885.078 2122.48 883.037 2117.13 880.46 2112.3 877.346 2107.46 874.231 2103.27 870.768 2099.73 866.956 2096.18 863.144 2093.6 859.519 2091.99 856.083L2096.51 879.118C2096.72 880.299 2096.64 881.292 2096.26 882.098 2095.89 882.903 2095.06 883.547 2093.77 884.03 2092.48 884.514 2090.78 884.863 2088.69 885.078 2086.59 885.292 2083.88 885.4 2080.55 885.4 2074 885.4 2069.24 884.917 2066.29 883.95 2063.34 882.984 2061.64 881.373 2061.21 879.118L2032.37 735.112C2032.15 734.038 2032.26 733.098 2032.69 732.293 2033.12 731.488 2033.95 730.843 2035.19 730.36 2036.42 729.877 2038.12 729.501 2040.26 729.232 2042.41 728.964 2045.1 728.83 2048.32 728.83 2054.87 728.83 2059.63 729.313 2062.58 730.279 2065.54 731.246 2067.23 732.857 2067.66 735.112L2070.24 747.837C2075.39 740.75 2081.41 735.353 2088.29 731.648 2095.16 727.944 2103.06 726.091 2111.98 726.091ZM2209.36 726.091C2213.34 726.091 2217.37 726.897 2221.45 728.508 2225.53 730.118 2229.48 732.347 2233.29 735.192 2237.11 738.038 2240.71 741.394 2244.09 745.26 2247.48 749.126 2250.46 753.367 2253.04 757.985L2248.52 735.112C2248.31 734.038 2248.39 733.098 2248.77 732.293 2249.14 731.488 2249.92 730.843 2251.1 730.36 2252.28 729.877 2253.92 729.501 2256.02 729.232 2258.11 728.964 2260.83 728.83 2264.16 728.83 2267.38 728.83 2270.14 728.964 2272.45 729.232 2274.76 729.501 2276.64 729.877 2278.09 730.36 2279.55 730.843 2280.65 731.488 2281.4 732.293 2282.15 733.098 2282.63 734.038 2282.85 735.112L2311.53 878.956C2311.75 880.031 2311.64 880.97 2311.21 881.776 2310.78 882.581 2309.84 883.252 2308.39 883.789 2306.94 884.326 2304.95 884.729 2302.43 884.997 2299.9 885.265 2296.65 885.4 2292.68 885.4 2288.81 885.4 2285.53 885.265 2282.85 884.997 2280.16 884.729 2277.99 884.326 2276.32 883.789 2274.66 883.252 2273.42 882.581 2272.62 881.776 2271.81 880.97 2271.3 880.031 2271.08 878.956L2258.19 814.363C2256.9 807.705 2254.78 801.343 2251.83 795.275 2248.87 789.208 2245.52 783.892 2241.76 779.329 2238 774.764 2234.05 771.086 2229.91 768.294 2225.77 765.502 2221.88 764.106 2218.23 764.106 2216.4 764.106 2214.79 764.294 2213.39 764.67 2212 765.046 2210.71 765.422 2209.53 765.798 2208.34 766.174 2207.27 766.549 2206.3 766.925 2205.34 767.301 2204.37 767.489 2203.4 767.489 2202.22 767.489 2201.12 766.737 2200.1 765.234 2199.08 763.73 2198.16 761.797 2197.36 759.435 2196.55 757.072 2195.83 754.522 2195.18 751.784 2194.54 749.045 2194 746.388 2193.57 743.81 2193.14 741.233 2192.82 738.978 2192.6 737.045 2192.39 735.112 2192.28 733.77 2192.28 733.018 2192.28 731.622 2192.6 730.602 2193.25 729.957 2193.89 729.42 2194.78 728.91 2195.91 728.427 2197.04 727.944 2198.33 727.541 2199.78 727.219 2201.23 726.897 2202.78 726.628 2204.45 726.413 2206.11 726.199 2207.75 726.091 2209.36 726.091ZM2404.2 726.091C2413.76 726.091 2422.32 727.783 2429.9 731.165 2437.47 734.548 2444.19 739.085 2450.04 744.777 2455.9 750.468 2460.92 756.992 2465.11 764.348 2469.3 771.704 2472.74 779.355 2475.42 787.302 2478.11 795.248 2480.1 803.222 2481.39 811.222 2482.68 819.223 2483.32 826.606 2483.32 833.371 2483.32 840.566 2482.59 847.438 2481.14 853.989 2479.69 860.54 2477.25 866.365 2473.81 871.466 2470.37 876.567 2465.81 880.621 2460.11 883.628 2454.42 886.635 2447.28 888.138 2438.68 888.138 2432.45 888.138 2426.41 887.118 2420.55 885.078 2414.7 883.037 2409.35 880.46 2404.52 877.346 2399.68 874.231 2395.49 870.768 2391.95 866.956 2388.4 863.144 2385.82 859.519 2384.21 856.083L2388.72 879.118C2388.94 880.299 2388.86 881.292 2388.48 882.098 2388.11 882.903 2387.27 883.547 2385.98 884.03 2384.7 884.514 2383 884.863 2380.91 885.078 2378.81 885.292 2376.1 885.4 2372.77 885.4 2366.22 885.4 2361.46 884.917 2358.51 883.95 2355.55 882.984 2353.86 881.373 2353.43 879.118L2324.59 735.112C2324.37 734.038 2324.48 733.098 2324.91 732.293 2325.34 731.488 2326.17 730.843 2327.41 730.36 2328.64 729.877 2330.33 729.501 2332.48 729.232 2334.63 728.964 2337.32 728.83 2340.54 728.83 2347.09 728.83 2351.85 729.313 2354.8 730.279 2357.76 731.246 2359.45 732.857 2359.88 735.112L2362.46 747.837C2367.61 740.75 2373.63 735.353 2380.51 731.648 2387.38 727.944 2395.28 726.091 2404.2 726.091ZM1954.53 690.976C1958.51 690.976 1961.81 691.11 1964.44 691.378 1967.07 691.647 1969.22 692.077 1970.89 692.667 1972.55 693.258 1973.79 693.983 1974.6 694.842 1975.4 695.701 1975.91 696.667 1976.13 697.741L1982.57 729.796 1999.82 729.796C2001.75 729.796 2003.41 730.816 2004.81 732.857 2006.21 734.897 2007.34 737.34 2008.19 740.186 2009.05 743.032 2009.67 745.931 2010.05 748.884 2010.42 751.837 2010.61 754.227 2010.61 756.052 2010.61 758.629 2010.29 760.374 2009.65 761.287 2009 762.2 2007.98 762.656 2006.58 762.656L1989.18 762.656 2003.2 832.726C2003.52 834.123 2003.82 835.706 2004.09 837.478 2004.35 839.25 2004.62 840.995 2004.89 842.713 2005.16 844.432 2005.35 846.069 2005.46 847.626 2005.56 849.184 2005.62 850.553 2005.62 851.734 2005.62 858.177 2004.78 863.654 2003.12 868.164 2001.45 872.674 1998.96 876.379 1995.63 879.279 1992.3 882.178 1988.19 884.299 1983.3 885.641 1978.41 886.984 1972.74 887.655 1966.3 887.655 1963.29 887.655 1960.28 887.467 1957.27 887.091 1954.26 886.715 1951.44 886.205 1948.81 885.561 1946.18 884.917 1943.9 884.165 1941.96 883.306 1940.03 882.447 1938.58 881.534 1937.61 880.567 1936.64 879.601 1935.73 878.124 1934.87 876.138 1934.01 874.151 1933.23 871.949 1932.54 869.533 1931.84 867.117 1931.27 864.62 1930.84 862.043 1930.41 859.466 1930.2 857.157 1930.2 855.116 1930.2 853.291 1930.49 851.976 1931.08 851.17 1931.68 850.365 1932.4 849.962 1933.26 849.962 1934.12 849.962 1935.03 850.15 1936 850.526 1936.97 850.901 1938.12 851.331 1939.46 851.815 1940.81 852.298 1942.39 852.727 1944.22 853.103 1946.05 853.479 1948.25 853.667 1950.83 853.667 1955.23 853.667 1958.45 852.674 1960.49 850.687 1962.54 848.7 1963.56 845.559 1963.56 841.264 1963.56 839.868 1963.42 838.069 1963.15 835.868 1962.89 833.666 1962.59 831.76 1962.27 830.149L1948.73 762.656 1917.31 762.656C1916.12 762.656 1915.02 762.147 1914 761.126 1912.98 760.106 1912.07 758.817 1911.26 757.26 1910.46 755.703 1909.73 753.958 1909.09 752.025 1908.44 750.092 1907.93 748.159 1907.56 746.226 1907.18 744.293 1906.89 742.495 1906.67 740.83 1906.46 739.166 1906.35 737.797 1906.35 736.722 1906.35 734.468 1906.67 732.749 1907.32 731.568 1907.96 730.387 1909.2 729.796 1911.02 729.796L1942.12 729.796 1935.68 697.741C1935.46 696.667 1935.6 695.701 1936.08 694.842 1936.56 693.983 1937.5 693.258 1938.9 692.667 1940.3 692.077 1942.28 691.647 1944.86 691.378 1947.44 691.11 1950.66 690.976 1954.53 690.976ZM2599.13 675.995C2600.42 675.995 2601.6 676.559 2602.68 677.687 2603.75 678.814 2604.72 680.291 2605.58 682.116 2606.44 683.942 2607.16 685.955 2607.75 688.157 2608.35 690.358 2608.83 692.506 2609.2 694.6 2609.58 696.694 2609.85 698.573 2610.01 700.238 2610.17 701.902 2610.25 703.164 2610.25 704.023 2610.25 706.064 2609.96 707.674 2609.37 708.856 2608.78 710.037 2607.67 710.628 2606.06 710.628L2554.17 710.628 2587.69 878.634C2587.91 879.708 2587.77 880.675 2587.29 881.534 2586.8 882.393 2585.84 883.091 2584.39 883.628 2582.94 884.165 2580.87 884.594 2578.18 884.917 2575.5 885.239 2572.11 885.4 2568.03 885.4 2563.84 885.4 2560.38 885.239 2557.64 884.917 2554.9 884.594 2552.64 884.165 2550.87 883.628 2549.1 883.091 2547.78 882.393 2546.92 881.534 2546.06 880.675 2545.47 879.708 2545.15 878.634L2511.63 710.628 2459.25 710.628C2457.97 710.628 2456.76 710.037 2455.63 708.856 2454.5 707.674 2453.53 706.171 2452.73 704.345 2451.92 702.52 2451.22 700.506 2450.63 698.305 2450.04 696.104 2449.56 693.983 2449.18 691.942 2448.81 689.902 2448.54 688.05 2448.38 686.385 2448.22 684.72 2448.14 683.513 2448.14 682.761 2448.14 680.613 2448.48 678.948 2449.18 677.767 2449.88 676.586 2450.87 675.995 2452.16 675.995ZM1667.52 665.686C1672.14 665.686 1676.01 666.062 1679.13 666.814 1682.24 667.565 1684.87 668.8 1687.02 670.518 1689.17 672.237 1690.89 674.438 1692.18 677.123 1693.47 679.808 1694.49 683.083 1695.24 686.949 1696.1 690.922 1696.42 694.278 1696.21 697.016 1695.99 699.755 1695.16 701.956 1693.71 703.621 1692.26 705.285 1690.11 706.466 1687.26 707.165 1684.42 707.862 1680.74 708.211 1676.23 708.211 1671.61 708.211 1667.74 707.862 1664.62 707.165 1661.51 706.466 1658.88 705.285 1656.73 703.621 1654.58 701.956 1652.86 699.755 1651.57 697.016 1650.28 694.278 1649.26 690.922 1648.51 686.949 1647.76 683.083 1647.46 679.808 1647.62 677.123 1647.78 674.438 1648.59 672.237 1650.04 670.518 1651.49 668.8 1653.64 667.565 1656.49 666.814 1659.33 666.062 1663.01 665.686 1667.52 665.686ZM1425.91 660.209C1429.88 660.209 1433.18 660.371 1435.82 660.693 1438.45 661.015 1440.62 661.471 1442.34 662.062 1444.06 662.652 1445.3 663.377 1446.05 664.236 1446.8 665.096 1447.29 666.062 1447.5 667.136L1489.88 878.956C1490.1 880.031 1489.99 880.97 1489.56 881.776 1489.13 882.581 1488.19 883.252 1486.74 883.789 1485.29 884.326 1483.3 884.729 1480.78 884.997 1478.25 885.265 1475 885.4 1471.03 885.4 1467.16 885.4 1463.88 885.265 1461.2 884.997 1458.51 884.729 1456.34 884.326 1454.67 883.789 1453.01 883.252 1451.77 882.581 1450.96 881.776 1450.16 880.97 1449.65 880.031 1449.43 878.956L1436.38 814.202C1434.98 807.007 1432.62 800.188 1429.29 793.745 1425.96 787.302 1422.17 781.664 1417.93 776.832 1413.69 771.999 1409.17 768.187 1404.39 765.395 1399.61 762.603 1395.02 761.207 1390.61 761.207 1388.25 761.207 1386.21 761.609 1384.49 762.415 1382.77 763.22 1381.37 764.348 1380.3 765.798 1379.23 767.247 1378.45 768.966 1377.96 770.952 1377.48 772.939 1377.24 775.114 1377.24 777.476 1377.24 779.731 1377.4 782.281 1377.72 785.127 1378.04 787.973 1378.42 790.523 1378.85 792.779L1396.09 878.956C1396.31 880.031 1396.17 880.97 1395.69 881.776 1395.21 882.581 1394.27 883.252 1392.87 883.789 1391.47 884.326 1389.51 884.729 1386.99 884.997 1384.46 885.265 1381.27 885.4 1377.4 885.4 1373.32 885.4 1369.96 885.265 1367.33 884.997 1364.7 884.729 1362.55 884.326 1360.88 883.789 1359.22 883.252 1357.98 882.581 1357.18 881.776 1356.37 880.97 1355.86 880.031 1355.64 878.956L1337.92 790.201C1337.17 786.443 1336.57 782.657 1336.15 778.845 1335.72 775.033 1335.5 771.194 1335.5 767.328 1335.5 761.314 1336.23 755.784 1337.68 750.737 1339.13 745.69 1341.46 741.34 1344.69 737.689 1347.91 734.038 1352.05 731.192 1357.09 729.152 1362.14 727.111 1368.32 726.091 1375.63 726.091 1381.21 726.091 1386.67 726.977 1391.98 728.749 1397.3 730.521 1402.24 732.803 1406.81 735.595 1411.38 738.387 1415.43 741.501 1418.98 744.938 1422.52 748.374 1425.31 751.81 1427.36 755.247 1426.6 753.314 1425.83 751.112 1425.02 748.642 1424.21 746.173 1423.41 743.622 1422.6 740.991 1421.8 738.36 1421.07 735.703 1420.43 733.018 1419.78 730.333 1419.19 727.81 1418.65 725.447L1407.21 667.136C1407 666.062 1407.1 665.096 1407.53 664.236 1407.96 663.377 1408.88 662.652 1410.27 662.062 1411.67 661.471 1413.63 661.015 1416.16 660.693 1418.68 660.371 1421.93 660.209 1425.91 660.209ZM1584.05 660.209C1588.02 660.209 1591.33 660.371 1593.96 660.693 1596.59 661.015 1598.77 661.471 1600.49 662.062 1602.2 662.652 1603.44 663.377 1604.19 664.236 1604.94 665.096 1605.43 666.062 1605.64 667.136L1648.19 879.118C1648.4 880.191 1648.27 881.131 1647.78 881.936 1647.3 882.742 1646.36 883.386 1644.96 883.87 1643.57 884.353 1641.61 884.729 1639.08 884.997 1636.56 885.265 1633.31 885.4 1629.33 885.4 1625.46 885.4 1622.19 885.265 1619.5 884.997 1616.82 884.729 1614.64 884.326 1612.97 883.789 1611.31 883.252 1610.07 882.581 1609.27 881.776 1608.46 880.97 1607.9 880.031 1607.58 878.956L1592.43 802.927 1558.43 878.634C1558.1 879.923 1557.59 880.997 1556.89 881.856 1556.2 882.715 1555.12 883.413 1553.67 883.95 1552.22 884.487 1550.18 884.863 1547.55 885.078 1544.92 885.292 1541.45 885.4 1537.15 885.4 1532.86 885.4 1529.28 885.265 1526.44 884.997 1523.59 884.729 1521.33 884.272 1519.67 883.628 1518 882.984 1516.82 882.178 1516.12 881.212 1515.42 880.245 1515.08 879.118 1515.08 877.829 1515.08 876.755 1515.29 875.252 1515.72 873.319 1516.15 871.386 1516.9 869.131 1517.98 866.553L1551.01 797.289 1500.25 749.448C1496.92 745.904 1494.53 742.978 1493.08 740.669 1491.63 738.36 1490.9 736.347 1490.9 734.629 1490.9 733.662 1491.2 732.803 1491.79 732.051 1492.38 731.3 1493.43 730.682 1494.93 730.199 1496.44 729.715 1498.53 729.367 1501.22 729.152 1503.9 728.937 1507.23 728.83 1511.21 728.83 1515.29 728.83 1518.7 728.937 1521.44 729.152 1524.18 729.367 1526.52 729.743 1528.45 730.279 1530.38 730.816 1531.97 731.541 1533.2 732.454 1534.44 733.367 1535.6 734.468 1536.67 735.756L1590.49 793.262 1565.35 667.136C1565.14 666.062 1565.25 665.096 1565.68 664.236 1566.11 663.377 1567.02 662.652 1568.42 662.062 1569.81 661.471 1571.77 661.015 1574.3 660.693 1576.82 660.371 1580.07 660.209 1584.05 660.209ZM1841.89 660.209C1845.86 660.209 1849.17 660.371 1851.8 660.693 1854.43 661.015 1856.61 661.471 1858.33 662.062 1860.04 662.652 1861.28 663.377 1862.03 664.236 1862.78 665.096 1863.27 666.062 1863.48 667.136L1905.86 878.956C1906.08 880.031 1905.97 880.97 1905.54 881.776 1905.11 882.581 1904.17 883.252 1902.72 883.789 1901.27 884.326 1899.28 884.729 1896.76 884.997 1894.24 885.265 1890.99 885.4 1887.01 885.4 1883.14 885.4 1879.87 885.265 1877.18 884.997 1874.49 884.729 1872.32 884.326 1870.65 883.789 1868.99 883.252 1867.75 882.581 1866.95 881.776 1866.14 880.97 1865.63 880.031 1865.42 878.956L1852.36 814.202C1850.97 807.007 1848.6 800.188 1845.27 793.745 1841.94 787.302 1838.16 781.664 1833.91 776.832 1829.67 771.999 1825.16 768.187 1820.37 765.395 1815.59 762.603 1811 761.207 1806.6 761.207 1804.23 761.207 1802.19 761.609 1800.47 762.415 1798.75 763.22 1797.36 764.348 1796.28 765.798 1795.21 767.247 1794.43 768.966 1793.95 770.952 1793.46 772.939 1793.22 775.114 1793.22 777.476 1793.22 779.731 1793.38 782.281 1793.7 785.127 1794.03 787.973 1794.4 790.523 1794.83 792.779L1812.08 878.956C1812.29 880.031 1812.16 880.97 1811.67 881.776 1811.19 882.581 1810.25 883.252 1808.85 883.789 1807.46 884.326 1805.5 884.729 1802.97 884.997 1800.45 885.265 1797.25 885.4 1793.38 885.4 1789.3 885.4 1785.94 885.265 1783.31 884.997 1780.68 884.729 1778.53 884.326 1776.86 883.789 1775.2 883.252 1773.96 882.581 1773.16 881.776 1772.35 880.97 1771.84 880.031 1771.63 878.956L1753.9 790.201C1753.15 786.443 1752.56 782.657 1752.13 778.845 1751.7 775.033 1751.48 771.194 1751.48 767.328 1751.48 761.314 1752.21 755.784 1753.66 750.737 1755.11 745.69 1757.45 741.34 1760.67 737.689 1763.89 734.038 1768.03 731.192 1773.08 729.152 1778.13 727.111 1784.3 726.091 1791.61 726.091 1797.2 726.091 1802.65 726.977 1807.97 728.749 1813.28 730.521 1818.23 732.803 1822.79 735.595 1827.36 738.387 1831.41 741.501 1834.96 744.938 1838.5 748.374 1841.3 751.81 1843.34 755.247 1842.59 753.314 1841.81 751.112 1841 748.642 1840.2 746.173 1839.39 743.622 1838.58 740.991 1837.78 738.36 1837.05 735.703 1836.41 733.018 1835.76 730.333 1835.17 727.81 1834.64 725.447L1823.19 667.136C1822.98 666.062 1823.09 665.096 1823.52 664.236 1823.95 663.377 1824.86 662.652 1826.26 662.062 1827.65 661.471 1829.61 661.015 1832.14 660.693 1834.66 660.371 1837.91 660.209 1841.89 660.209ZM2166.34 239.066C2160.32 239.066 2155.03 240.543 2150.46 243.496 2145.9 246.449 2141.73 250.879 2137.97 256.785L2142.49 278.531C2143.99 285.941 2146.38 292.894 2149.66 299.391 2152.93 305.888 2156.72 311.58 2161.02 316.466 2165.32 321.352 2169.93 325.218 2174.88 328.063 2179.82 330.909 2184.65 332.332 2189.38 332.332 2192.71 332.332 2195.45 331.661 2197.6 330.319 2199.75 328.976 2201.47 327.177 2202.76 324.922 2204.04 322.667 2204.93 320.09 2205.41 317.19 2205.9 314.291 2206.14 311.23 2206.14 308.009 2206.14 303.606 2205.79 298.8 2205.09 293.592 2204.39 288.384 2203.32 283.229 2201.87 278.129 2200.42 273.028 2198.59 268.115 2196.39 263.389 2194.19 258.664 2191.64 254.503 2188.74 250.906 2185.83 247.308 2182.5 244.436 2178.74 242.288 2174.98 240.14 2170.85 239.066 2166.34 239.066ZM1851.29 207.334C1855.15 207.334 1858.43 207.468 1861.12 207.736 1863.8 208.005 1865.98 208.381 1867.64 208.864 1869.31 209.347 1870.54 209.992 1871.35 210.797 1872.16 211.602 1872.67 212.542 1872.88 213.616L1890.61 302.693C1891.36 306.667 1891.98 310.559 1892.46 314.372 1892.94 318.184 1893.19 321.915 1893.19 325.566 1893.19 331.473 1892.46 336.95 1891.01 341.997 1889.56 347.044 1887.25 351.366 1884.08 354.964 1880.91 358.561 1876.72 361.407 1871.51 363.501 1866.3 365.595 1859.94 366.642 1852.42 366.642 1846.4 366.642 1840.54 365.676 1834.85 363.743 1829.16 361.81 1823.86 359.259 1818.98 356.091 1814.09 352.923 1809.76 349.433 1806 345.621 1802.24 341.809 1799.29 338.023 1797.14 334.265L1801.49 357.622C1801.81 358.695 1801.79 359.635 1801.41 360.44 1801.04 361.246 1800.26 361.89 1799.07 362.373 1797.89 362.857 1796.25 363.232 1794.16 363.501 1792.06 363.769 1789.35 363.904 1786.02 363.904 1782.69 363.904 1779.9 363.769 1777.64 363.501 1775.39 363.232 1773.53 362.857 1772.08 362.373 1770.63 361.89 1769.56 361.246 1768.86 360.44 1768.16 359.635 1767.7 358.695 1767.49 357.622L1738.64 213.616C1738.43 212.542 1738.54 211.602 1738.97 210.797 1739.4 209.992 1740.34 209.347 1741.79 208.864 1743.24 208.381 1745.22 208.005 1747.75 207.736 1750.27 207.468 1753.52 207.334 1757.5 207.334 1761.37 207.334 1764.64 207.468 1767.33 207.736 1770.01 208.005 1772.19 208.381 1773.85 208.864 1775.52 209.347 1776.78 209.992 1777.64 210.797 1778.5 211.602 1778.98 212.542 1779.09 213.616L1791.34 275.793C1793.06 283.739 1795.61 291.122 1798.99 297.941 1802.38 304.76 1806.22 310.666 1810.52 315.66 1814.81 320.653 1819.35 324.573 1824.13 327.419 1828.91 330.265 1833.51 331.688 1837.91 331.688 1840.28 331.688 1842.29 331.312 1843.95 330.56 1845.62 329.808 1846.99 328.681 1848.06 327.177 1849.14 325.674 1849.92 323.875 1850.4 321.781 1850.88 319.687 1851.13 317.352 1851.13 314.774 1851.13 312.412 1850.99 309.942 1850.72 307.364 1850.45 304.787 1850.05 302.317 1849.51 299.955L1832.43 213.616C1832.22 212.542 1832.35 211.602 1832.84 210.797 1833.32 209.992 1834.26 209.347 1835.66 208.864 1837.05 208.381 1839.01 208.005 1841.54 207.736 1844.06 207.468 1847.31 207.334 1851.29 207.334ZM1961.84 204.595C1968.07 204.595 1974.06 205.589 1979.8 207.575 1985.55 209.562 1990.87 212.112 1995.76 215.226 2000.65 218.341 2004.97 221.858 2008.73 225.777 2012.49 229.697 2015.5 233.536 2017.76 237.295L2013.08 213.616C2012.87 212.542 2012.95 211.602 2013.32 210.797 2013.7 209.992 2014.48 209.347 2015.66 208.864 2016.84 208.381 2018.48 208.005 2020.58 207.736 2022.67 207.468 2025.38 207.334 2028.71 207.334 2031.94 207.334 2034.7 207.468 2037.01 207.736 2039.32 208.005 2041.2 208.381 2042.65 208.864 2044.1 209.347 2045.18 209.992 2045.88 210.797 2046.57 211.602 2047.03 212.542 2047.25 213.616L2076.09 357.46C2076.31 358.534 2076.2 359.474 2075.77 360.28 2075.34 361.085 2074.4 361.756 2072.95 362.293 2071.5 362.83 2069.51 363.232 2066.99 363.501 2064.46 363.769 2061.21 363.904 2057.24 363.904 2053.37 363.904 2050.09 363.769 2047.41 363.501 2044.72 363.232 2042.55 362.83 2040.88 362.293 2039.22 361.756 2037.98 361.085 2037.17 360.28 2036.37 359.474 2035.86 358.534 2035.64 357.46L2022.59 292.384C2021.19 285.189 2018.83 278.397 2015.5 272.007 2012.17 265.618 2008.38 260.034 2004.14 255.255 1999.89 250.476 1995.38 246.691 1990.6 243.899 1985.82 241.107 1981.23 239.711 1976.82 239.711 1971.99 239.711 1968.55 241.268 1966.51 244.382 1964.47 247.496 1963.45 251.469 1963.45 256.302 1963.45 258.342 1963.58 260.705 1963.85 263.389 1964.12 266.074 1964.52 268.705 1965.06 271.283L1982.46 357.46C1982.68 358.534 1982.54 359.474 1982.06 360.28 1981.58 361.085 1980.64 361.756 1979.24 362.293 1977.84 362.83 1975.88 363.232 1973.36 363.501 1970.83 363.769 1967.58 363.904 1963.61 363.904 1959.63 363.904 1956.33 363.769 1953.7 363.501 1951.07 363.232 1948.92 362.83 1947.25 362.293 1945.59 361.756 1944.35 361.085 1943.55 360.28 1942.74 359.474 1942.23 358.534 1942.01 357.46L1924.13 268.705C1923.37 264.732 1922.76 260.866 1922.27 257.107 1921.79 253.349 1921.55 249.59 1921.55 245.832 1921.55 240.248 1922.25 234.959 1923.64 229.965 1925.04 224.972 1927.32 220.596 1930.49 216.837 1933.66 213.079 1937.8 210.099 1942.9 207.897 1948 205.696 1954.32 204.595 1961.84 204.595ZM2168.75 204.595C2178.31 204.595 2186.88 206.287 2194.46 209.669 2202.03 213.052 2208.74 217.589 2214.6 223.281 2220.46 228.972 2225.48 235.496 2229.67 242.852 2233.86 250.208 2237.3 257.859 2239.98 265.806 2242.67 273.752 2244.65 281.726 2245.94 289.726 2247.23 297.727 2247.88 305.109 2247.88 311.875 2247.88 319.07 2247.15 325.942 2245.7 332.493 2244.25 339.044 2241.81 344.869 2238.37 349.97 2234.93 355.071 2230.37 359.125 2224.67 362.132 2218.98 365.139 2211.83 366.642 2203.24 366.642 2197.01 366.642 2190.96 365.622 2185.11 363.582 2179.25 361.541 2173.91 358.964 2169.08 355.85 2164.24 352.735 2160.05 349.272 2156.51 345.46 2152.96 341.648 2150.38 338.023 2148.77 334.587L2153.28 357.622C2153.5 358.803 2153.42 359.796 2153.04 360.602 2152.66 361.407 2151.83 362.051 2150.54 362.534 2149.25 363.018 2147.56 363.367 2145.47 363.582 2143.37 363.796 2140.66 363.904 2137.33 363.904 2130.78 363.904 2126.02 363.42 2123.07 362.454 2120.11 361.487 2118.42 359.877 2117.99 357.622L2089.14 213.616C2088.93 212.542 2089.04 211.602 2089.47 210.797 2089.9 209.992 2090.73 209.347 2091.96 208.864 2093.2 208.381 2094.89 208.005 2097.04 207.736 2099.19 207.468 2101.88 207.334 2105.1 207.334 2111.65 207.334 2116.41 207.817 2119.36 208.783 2122.31 209.75 2124.01 211.361 2124.44 213.616L2127.01 226.341C2132.17 219.254 2138.19 213.857 2145.06 210.152 2151.94 206.448 2159.84 204.595 2168.75 204.595ZM2616 204.595C2622.01 204.595 2627.84 205.589 2633.48 207.575 2639.12 209.562 2644.33 212.112 2649.11 215.226 2653.9 218.341 2658.17 221.858 2661.93 225.777 2665.69 229.697 2668.69 233.536 2670.95 237.295L2666.28 213.616C2666.06 212.542 2666.14 211.602 2666.52 210.797 2666.9 209.992 2667.67 209.347 2668.86 208.864 2670.04 208.381 2671.68 208.005 2673.77 207.736 2675.87 207.468 2678.58 207.334 2681.91 207.334 2685.13 207.334 2687.9 207.468 2690.21 207.736 2692.52 208.005 2694.4 208.381 2695.85 208.864 2697.3 209.347 2698.37 209.992 2699.07 210.797 2699.77 211.602 2700.23 212.542 2700.44 213.616L2729.29 357.46C2729.5 358.534 2729.39 359.474 2728.96 360.28 2728.54 361.085 2727.59 361.756 2726.14 362.293 2724.69 362.83 2722.71 363.232 2720.18 363.501 2717.66 363.769 2714.41 363.904 2710.43 363.904 2706.56 363.904 2703.29 363.769 2700.6 363.501 2697.92 363.232 2695.74 362.83 2694.08 362.293 2692.41 361.756 2691.18 361.085 2690.37 360.28 2689.56 359.474 2689.05 358.534 2688.84 357.46L2675.78 292.384C2674.39 285.189 2672.05 278.397 2668.78 272.007 2665.5 265.618 2661.74 260.034 2657.49 255.255 2653.25 250.476 2648.82 246.691 2644.2 243.899 2639.58 241.107 2635.12 239.711 2630.82 239.711 2626.1 239.711 2622.77 241.241 2620.83 244.302 2618.9 247.362 2617.93 251.255 2617.93 255.98 2617.93 258.45 2618.07 261 2618.34 263.631 2618.6 266.262 2619.06 268.813 2619.71 271.283L2636.79 357.46C2637 358.534 2636.87 359.474 2636.38 360.28 2635.9 361.085 2634.96 361.756 2633.56 362.293 2632.17 362.83 2630.21 363.232 2627.68 363.501 2625.16 363.769 2621.96 363.904 2618.09 363.904 2614.12 363.904 2610.81 363.769 2608.18 363.501 2605.55 363.232 2603.38 362.83 2601.66 362.293 2599.94 361.756 2598.67 361.085 2597.87 360.28 2597.06 359.474 2596.55 358.534 2596.34 357.46L2583.28 292.384C2581.89 285.189 2579.55 278.397 2576.27 272.007 2573 265.618 2569.24 260.034 2564.99 255.255 2560.75 250.476 2556.32 246.691 2551.7 243.899 2547.08 241.107 2542.62 239.711 2538.32 239.711 2533.49 239.711 2530.13 241.268 2528.25 244.382 2526.37 247.496 2525.43 251.577 2525.43 256.624 2525.43 259.094 2525.59 261.537 2525.92 263.953 2526.24 266.369 2526.61 268.813 2527.04 271.283L2544.29 357.46C2544.61 358.534 2544.53 359.474 2544.04 360.28 2543.56 361.085 2542.62 361.756 2541.22 362.293 2539.83 362.83 2537.84 363.232 2535.26 363.501 2532.68 363.769 2529.46 363.904 2525.59 363.904 2521.62 363.904 2518.31 363.769 2515.68 363.501 2513.05 363.232 2510.87 362.83 2509.16 362.293 2507.44 361.756 2506.17 361.085 2505.37 360.28 2504.56 359.474 2504.05 358.534 2503.84 357.46L2486.11 268.705C2485.25 264.732 2484.61 260.839 2484.18 257.027 2483.75 253.215 2483.53 249.429 2483.53 245.671 2483.53 239.872 2484.23 234.476 2485.63 229.482 2487.02 224.489 2489.28 220.139 2492.4 216.435 2495.51 212.73 2499.62 209.83 2504.72 207.736 2509.83 205.642 2516.14 204.595 2523.66 204.595 2529.57 204.595 2535.32 205.589 2540.9 207.575 2546.49 209.562 2551.67 212.112 2556.45 215.226 2561.23 218.341 2565.53 221.831 2569.35 225.697 2573.16 229.563 2576.3 233.429 2578.77 237.295 2579.2 232.677 2580.2 228.381 2581.75 224.408 2583.31 220.435 2585.57 216.971 2588.52 214.018 2591.48 211.065 2595.24 208.757 2599.8 207.092 2604.37 205.427 2609.77 204.595 2616 204.595ZM2363.69 154.499C2364.98 154.499 2366.16 155.063 2367.24 156.191 2368.31 157.318 2369.28 158.795 2370.14 160.62 2371 162.446 2371.72 164.459 2372.31 166.661 2372.9 168.862 2373.39 171.01 2373.76 173.104 2374.14 175.198 2374.41 177.077 2374.57 178.742 2374.73 180.406 2374.81 181.668 2374.81 182.527 2374.81 184.568 2374.51 186.178 2373.92 187.36 2373.33 188.541 2372.23 189.132 2370.62 189.132L2318.73 189.132 2352.25 357.138C2352.46 358.212 2352.33 359.179 2351.85 360.038 2351.36 360.897 2350.4 361.595 2348.95 362.132 2347.5 362.669 2345.43 363.098 2342.74 363.42 2340.06 363.743 2336.67 363.904 2332.59 363.904 2328.4 363.904 2324.93 363.743 2322.19 363.42 2319.46 363.098 2317.2 362.669 2315.43 362.132 2313.65 361.595 2312.34 360.897 2311.48 360.038 2310.62 359.179 2310.03 358.212 2309.71 357.138L2276.19 189.132 2223.81 189.132C2222.52 189.132 2221.31 188.541 2220.19 187.36 2219.06 186.178 2218.09 184.675 2217.29 182.849 2216.48 181.024 2215.78 179.01 2215.19 176.809 2214.6 174.607 2214.12 172.486 2213.74 170.446 2213.36 168.406 2213.1 166.554 2212.93 164.889 2212.77 163.224 2212.69 162.016 2212.69 161.265 2212.69 159.117 2213.04 157.452 2213.74 156.271 2214.44 155.09 2215.43 154.499 2216.72 154.499ZM2826.41 153.533C2830.49 153.533 2833.9 153.667 2836.64 153.935 2839.38 154.204 2841.64 154.607 2843.41 155.144 2845.18 155.68 2846.52 156.379 2847.44 157.238 2848.35 158.097 2848.86 159.063 2848.97 160.137L2888.45 357.299C2888.77 358.373 2888.66 359.34 2888.13 360.199 2887.59 361.058 2886.57 361.756 2885.07 362.293 2883.56 362.83 2881.49 363.232 2878.86 363.501 2876.23 363.769 2872.82 363.904 2868.63 363.904 2864.55 363.904 2861.11 363.769 2858.31 363.501 2855.52 363.232 2853.24 362.83 2851.47 362.293 2849.69 361.756 2848.38 361.058 2847.52 360.199 2846.66 359.34 2846.12 358.373 2845.91 357.299L2806.59 160.137C2806.37 159.063 2806.5 158.097 2806.99 157.238 2807.47 156.379 2808.49 155.68 2810.05 155.144 2811.61 154.607 2813.7 154.204 2816.33 153.935 2818.97 153.667 2822.32 153.533 2826.41 153.533ZM2732.67 137.425C2736.75 137.425 2740.19 137.613 2742.98 137.988 2745.78 138.364 2748.11 139.17 2749.99 140.405 2751.88 141.639 2753.38 143.385 2754.51 145.64 2755.64 147.895 2756.52 150.848 2757.17 154.499L2762 178.339 2790.36 222.797C2791.33 224.301 2791.89 225.589 2792.06 226.663 2792.22 227.737 2791.92 228.596 2791.17 229.241 2790.42 229.885 2789.1 230.341 2787.22 230.61 2785.34 230.878 2782.84 231.012 2779.73 231.012 2777.04 231.012 2774.68 230.905 2772.64 230.69 2770.6 230.476 2768.77 230.126 2767.16 229.643 2765.55 229.16 2764.15 228.543 2762.97 227.791 2761.79 227.039 2760.71 226.126 2759.74 225.052L2732.19 194.125C2726.06 187.36 2721.34 180.031 2718.01 172.138 2714.68 164.245 2713.01 156.379 2713.01 148.539 2713.01 146.499 2713.31 144.781 2713.9 143.385 2714.49 141.989 2715.54 140.834 2717.04 139.921 2718.54 139.009 2720.56 138.364 2723.08 137.988 2725.61 137.613 2728.8 137.425 2732.67 137.425ZM3087 0 511.722 0 246.379 1060.91 2821.66 1060.91Z" stroke="#172C51" stroke-width="4.58333" stroke-miterlimit="8" fill="#0D0D0D" fill-rule="evenodd" transform="matrix(-1 0 0 1 3410.5 219.5)"/></g></svg>