<svg width="3945" height="2131" xmlns="http://www.w3.org/2000/svg" xmlns:xlink="http://www.w3.org/1999/xlink" xml:space="preserve" overflow="hidden"><g transform="translate(-228 -275)"><path d="M1427.75 1943.64C1433.77 1943.64 1439.06 1945.11 1443.63 1948.07 1448.19 1951.02 1452.36 1955.45 1456.12 1961.35L1451.61 1983.1C1450.1 1990.51 1447.71 1997.46 1444.43 2003.96 1441.16 2010.46 1437.37 2016.15 1433.07 2021.03 1428.77 2025.92 1424.15 2029.79 1419.21 2032.63 1414.27 2035.48 1409.43 2036.9 1404.71 2036.9 1401.38 2036.9 1398.64 2036.23 1396.49 2034.89 1394.34 2033.54 1392.62 2031.75 1391.33 2029.49 1390.04 2027.24 1389.15 2024.66 1388.67 2021.76 1388.19 2018.86 1387.95 2015.8 1387.95 2012.58 1387.95 2008.17 1388.3 2003.37 1388.99 1998.16 1389.69 1992.95 1390.77 1987.8 1392.22 1982.7 1393.67 1977.6 1395.49 1972.68 1397.7 1967.96 1399.9 1963.23 1402.45 1959.07 1405.35 1955.48 1408.25 1951.88 1411.58 1949.01 1415.34 1946.86 1419.1 1944.71 1423.24 1943.64 1427.75 1943.64ZM2106.63 1938C2113.07 1938 2117.99 1939.42 2121.37 1942.27 2124.76 1945.11 2126.45 1948.68 2126.45 1952.98 2126.45 1955.99 2125.65 1958.8 2124.03 1961.44 2122.42 1964.07 2119.84 1966.35 2116.3 1968.28 2112.75 1970.21 2108.08 1971.74 2102.28 1972.87 2096.47 1974 2089.28 1974.56 2080.68 1974.56L2067.14 1974.56C2068.54 1969.52 2070.39 1964.76 2072.7 1960.31 2075.01 1955.85 2077.78 1951.99 2081 1948.71 2084.23 1945.43 2087.96 1942.83 2092.2 1940.9 2096.45 1938.96 2101.26 1938 2106.63 1938ZM2746.87 1923.16C2754.06 1923.16 2759.54 1924.74 2763.31 1927.92 2767.08 1931.09 2768.97 1935.07 2768.97 1939.86 2768.97 1943.21 2768.07 1946.35 2766.27 1949.28 2764.48 1952.21 2761.6 1954.76 2757.65 1956.91 2753.7 1959.07 2748.49 1960.77 2742.02 1962.03 2735.56 1963.29 2727.53 1963.91 2717.95 1963.91L2702.86 1963.91C2704.42 1958.29 2706.49 1952.99 2709.06 1948.02 2711.64 1943.06 2714.72 1938.75 2718.31 1935.1 2721.9 1931.45 2726.07 1928.55 2730.8 1926.39 2735.53 1924.24 2740.89 1923.16 2746.87 1923.16ZM2110.33 1909.17C2099.05 1909.17 2089.01 1910.83 2080.2 1914.16 2071.39 1917.49 2063.62 1921.92 2056.91 1927.45 2050.19 1932.98 2044.47 1939.39 2039.74 1946.7 2035.02 1954 2031.15 1961.65 2028.14 1969.65 2025.13 1977.65 2022.96 1985.76 2021.61 1993.97 2020.27 2002.19 2019.6 2009.89 2019.6 2017.09 2019.6 2026.43 2020.89 2034.51 2023.47 2041.33 2026.05 2048.15 2029.91 2053.76 2035.07 2058.16 2040.23 2062.57 2046.65 2065.84 2054.33 2067.99 2062.01 2070.14 2071.01 2071.21 2081.33 2071.21 2087.56 2071.21 2093.68 2070.86 2099.7 2070.16 2105.71 2069.47 2111.14 2068.58 2115.98 2067.51 2120.81 2066.43 2124.95 2065.25 2128.39 2063.96 2131.82 2062.67 2134.19 2061.38 2135.48 2060.1 2136.66 2059.02 2137.71 2057.46 2138.62 2055.42 2139.53 2053.38 2140.28 2051.21 2140.88 2048.9 2141.47 2046.59 2141.92 2044.26 2142.25 2041.89 2142.57 2039.53 2142.73 2037.44 2142.73 2035.61 2142.73 2034 2142.46 2032.82 2141.92 2032.07 2141.39 2031.32 2140.47 2030.94 2139.18 2030.94 2137.89 2030.94 2135.85 2031.45 2133.06 2032.47 2130.27 2033.49 2126.75 2034.62 2122.5 2035.85 2118.26 2037.09 2113.32 2038.22 2107.68 2039.24 2102.03 2040.26 2095.67 2040.77 2088.58 2040.77 2078.59 2040.77 2071.33 2038.57 2066.82 2034.16 2062.31 2029.76 2060.05 2023.21 2060.05 2014.51 2060.05 2012.47 2060.16 2010.24 2060.37 2007.83 2060.59 2005.41 2060.91 2002.97 2061.34 2000.5L2076.17 2000.5C2091.85 2000.5 2105.37 1999.32 2116.7 1996.95 2128.04 1994.59 2137.38 1991.18 2144.74 1986.72 2152.1 1982.27 2157.53 1976.95 2161.02 1970.78 2164.51 1964.6 2166.26 1957.65 2166.26 1949.92 2166.26 1944.76 2165.16 1939.74 2162.95 1934.86 2160.75 1929.97 2157.39 1925.62 2152.88 1921.81 2148.37 1918 2142.59 1914.94 2135.56 1912.63 2128.52 1910.32 2120.11 1909.17 2110.33 1909.17ZM1865.1 1909.17C1859.08 1909.17 1853.25 1910.16 1847.61 1912.15 1841.97 1914.13 1836.76 1916.68 1831.98 1919.8 1827.2 1922.91 1822.93 1926.43 1819.17 1930.35 1815.41 1934.27 1812.4 1938.11 1810.14 1941.86L1814.81 1918.19C1815.03 1917.11 1814.95 1916.17 1814.57 1915.37 1814.2 1914.56 1813.42 1913.92 1812.24 1913.43 1811.05 1912.95 1809.42 1912.57 1807.32 1912.31 1805.22 1912.04 1802.51 1911.9 1799.18 1911.9 1795.96 1911.9 1793.19 1912.04 1790.88 1912.31 1788.57 1912.57 1786.69 1912.95 1785.24 1913.43 1783.79 1913.92 1782.72 1914.56 1782.02 1915.37 1781.32 1916.17 1780.86 1917.11 1780.65 1918.19L1751.8 2062.03C1751.58 2063.1 1751.69 2064.04 1752.12 2064.85 1752.55 2065.65 1753.49 2066.32 1754.94 2066.86 1756.39 2067.4 1758.38 2067.8 1760.91 2068.07 1763.43 2068.34 1766.68 2068.47 1770.66 2068.47 1774.52 2068.47 1777.8 2068.34 1780.49 2068.07 1783.17 2067.8 1785.35 2067.4 1787.01 2066.86 1788.68 2066.32 1789.91 2065.65 1790.72 2064.85 1791.53 2064.04 1792.04 2063.1 1792.25 2062.03L1805.31 1996.95C1806.7 1989.76 1809.04 1982.97 1812.32 1976.58 1815.59 1970.19 1819.35 1964.6 1823.6 1959.82 1827.84 1955.05 1832.27 1951.26 1836.89 1948.47 1841.51 1945.68 1845.97 1944.28 1850.27 1944.28 1855 1944.28 1858.33 1945.81 1860.26 1948.87 1862.2 1951.93 1863.16 1955.82 1863.16 1960.55 1863.16 1963.02 1863.03 1965.57 1862.76 1968.2 1862.49 1970.83 1862.04 1973.38 1861.39 1975.85L1844.31 2062.03C1844.09 2063.1 1844.23 2064.04 1844.71 2064.85 1845.19 2065.65 1846.13 2066.32 1847.53 2066.86 1848.93 2067.4 1850.89 2067.8 1853.41 2068.07 1855.94 2068.34 1859.13 2068.47 1863 2068.47 1866.98 2068.47 1870.28 2068.34 1872.91 2068.07 1875.55 2067.8 1877.72 2067.4 1879.44 2066.86 1881.16 2066.32 1882.42 2065.65 1883.23 2064.85 1884.03 2064.04 1884.54 2063.1 1884.76 2062.03L1897.81 1996.95C1899.21 1989.76 1901.55 1982.97 1904.82 1976.58 1908.1 1970.19 1911.86 1964.6 1916.11 1959.82 1920.35 1955.05 1924.78 1951.26 1929.4 1948.47 1934.02 1945.68 1938.48 1944.28 1942.78 1944.28 1947.61 1944.28 1950.97 1945.84 1952.85 1948.95 1954.73 1952.07 1955.67 1956.15 1955.67 1961.19 1955.67 1963.66 1955.51 1966.11 1955.19 1968.52 1954.87 1970.94 1954.49 1973.38 1954.06 1975.85L1936.82 2062.03C1936.49 2063.1 1936.57 2064.04 1937.06 2064.85 1937.54 2065.65 1938.48 2066.32 1939.88 2066.86 1941.27 2067.4 1943.26 2067.8 1945.84 2068.07 1948.42 2068.34 1951.64 2068.47 1955.51 2068.47 1959.49 2068.47 1962.79 2068.34 1965.42 2068.07 1968.05 2067.8 1970.23 2067.4 1971.95 2066.86 1973.67 2066.32 1974.93 2065.65 1975.74 2064.85 1976.54 2064.04 1977.05 2063.1 1977.27 2062.03L1995 1973.27C1995.85 1969.3 1996.5 1965.41 1996.93 1961.6 1997.36 1957.78 1997.57 1954 1997.57 1950.24 1997.57 1944.44 1996.88 1939.05 1995.48 1934.05 1994.08 1929.06 1991.83 1924.71 1988.71 1921 1985.59 1917.3 1981.48 1914.4 1976.38 1912.31 1971.28 1910.21 1964.97 1909.17 1957.44 1909.17 1951.54 1909.17 1945.79 1910.16 1940.2 1912.15 1934.61 1914.13 1929.43 1916.68 1924.65 1919.8 1919.87 1922.91 1915.57 1926.4 1911.75 1930.27 1907.94 1934.13 1904.8 1938 1902.33 1941.86 1901.9 1937.25 1900.9 1932.95 1899.34 1928.98 1897.79 1925 1895.53 1921.54 1892.58 1918.59 1889.62 1915.64 1885.86 1913.33 1881.29 1911.66 1876.73 1910 1871.33 1909.17 1865.1 1909.17ZM1425.34 1909.17C1415.77 1909.17 1407.2 1910.86 1399.63 1914.24 1392.06 1917.62 1385.34 1922.16 1379.48 1927.85 1373.63 1933.54 1368.61 1940.07 1364.42 1947.42 1360.23 1954.78 1356.79 1962.43 1354.1 1970.38 1351.42 1978.32 1349.43 1986.29 1348.14 1994.3 1346.85 2002.3 1346.2 2009.68 1346.2 2016.44 1346.2 2023.64 1346.93 2030.51 1348.38 2037.06 1349.83 2043.61 1352.28 2049.44 1355.71 2054.54 1359.15 2059.64 1363.72 2063.69 1369.41 2066.7 1375.11 2069.71 1382.25 2071.21 1390.85 2071.21 1397.08 2071.21 1403.12 2070.19 1408.98 2068.15 1414.83 2066.11 1420.18 2063.53 1425.01 2060.42 1429.85 2057.3 1434.04 2053.84 1437.58 2050.03 1441.13 2046.22 1443.71 2042.59 1445.32 2039.16L1440.81 2062.19C1440.59 2063.37 1440.67 2064.36 1441.05 2065.17 1441.43 2065.98 1442.26 2066.62 1443.55 2067.1 1444.84 2067.59 1446.53 2067.94 1448.62 2068.15 1450.72 2068.36 1453.43 2068.47 1456.76 2068.47 1463.32 2068.47 1468.07 2067.99 1471.03 2067.02 1473.98 2066.06 1475.67 2064.44 1476.1 2062.19L1504.95 1918.19C1505.17 1917.11 1505.06 1916.17 1504.63 1915.37 1504.2 1914.56 1503.37 1913.92 1502.13 1913.43 1500.89 1912.95 1499.2 1912.57 1497.05 1912.31 1494.9 1912.04 1492.22 1911.9 1489 1911.9 1482.44 1911.9 1477.69 1912.39 1474.73 1913.35 1471.78 1914.32 1470.09 1915.93 1469.66 1918.19L1467.08 1930.91C1461.92 1923.82 1455.9 1918.43 1449.03 1914.72 1442.15 1911.02 1434.25 1909.17 1425.34 1909.17ZM2864.58 1894.07C2859.07 1894.07 2854.73 1894.28 2851.56 1894.7 2848.39 1895.12 2845.96 1895.78 2844.28 1896.68 2842.61 1897.58 2841.53 1898.74 2841.05 1900.18 2840.57 1901.61 2840.33 1903.47 2840.33 1905.74 2840.33 1906.94 2840.36 1908.32 2840.42 1909.87 2840.48 1911.43 2840.57 1912.81 2840.69 1914L2854.52 2058.89C2854.64 2060.8 2855.09 2062.39 2855.87 2063.65 2856.65 2064.9 2858.03 2065.89 2860 2066.61 2861.98 2067.33 2864.79 2067.83 2868.44 2068.13 2872.1 2068.43 2876.8 2068.58 2882.55 2068.58 2888.41 2068.58 2893.17 2068.43 2896.83 2068.13 2900.48 2067.83 2903.41 2067.33 2905.63 2066.61 2907.84 2065.89 2909.52 2064.87 2910.66 2063.56 2911.8 2062.24 2912.84 2060.56 2913.8 2058.53L2957.99 1960.14 2966.25 2058.89C2966.37 2060.8 2966.76 2062.39 2967.42 2063.65 2968.08 2064.9 2969.28 2065.89 2971.01 2066.61 2972.75 2067.33 2975.24 2067.83 2978.47 2068.13 2981.7 2068.43 2985.83 2068.58 2990.86 2068.58 2994.93 2068.58 2998.53 2068.52 3001.64 2068.4 3004.75 2068.28 3007.54 2067.95 3009.99 2067.42 3012.45 2066.88 3014.54 2066.1 3016.28 2065.08 3018.02 2064.06 3019.42 2062.72 3020.5 2061.04 3028.65 2049.67 3036.31 2037.88 3043.49 2025.67 3050.68 2013.47 3057.42 2001.02 3063.7 1988.33 3069.99 1975.64 3075.8 1962.81 3081.13 1949.82 3086.46 1936.83 3091.34 1923.88 3095.77 1910.95 3096.25 1909.51 3096.72 1907.78 3097.2 1905.74 3097.68 1903.71 3097.92 1901.79 3097.92 1900 3097.92 1898.92 3097.68 1898.02 3097.2 1897.31 3096.72 1896.59 3095.74 1895.99 3094.24 1895.51 3092.74 1895.03 3090.62 1894.67 3087.86 1894.43 3085.11 1894.19 3081.52 1894.07 3077.08 1894.07 3072.41 1894.07 3068.58 1894.19 3065.59 1894.43 3062.6 1894.67 3060.14 1895.09 3058.22 1895.69 3056.31 1896.29 3054.87 1897.07 3053.91 1898.02 3052.95 1898.98 3052.36 1900.24 3052.12 1901.79 3049 1912.09 3045.53 1922.56 3041.7 1933.21 3037.87 1943.87 3033.79 1954.28 3029.48 1964.45 3025.17 1974.63 3020.77 1984.38 3016.28 1993.72 3011.79 2003.05 3007.33 2011.55 3002.9 2019.21L3001.82 2021.19 3001.64 2019.21 2992.3 1901.08C2992.18 1899.88 2991.82 1898.83 2991.22 1897.93 2990.62 1897.04 2989.55 1896.32 2987.99 1895.78 2986.43 1895.24 2984.28 1894.82 2981.52 1894.52 2978.77 1894.22 2975.18 1894.07 2970.74 1894.07 2966.55 1894.07 2963.05 1894.19 2960.24 1894.43 2957.42 1894.67 2955.15 1895.09 2953.41 1895.69 2951.67 1896.29 2950.36 1897.1 2949.46 1898.11 2948.56 1899.13 2947.81 1900.36 2947.21 1901.79L2894.4 2019.57 2893.32 2021.72 2893.5 2019.57 2885.78 1901.79C2885.78 1900.36 2885.54 1899.13 2885.06 1898.11 2884.58 1897.1 2883.59 1896.29 2882.1 1895.69 2880.6 1895.09 2878.47 1894.67 2875.72 1894.43 2872.97 1894.19 2869.25 1894.07 2864.58 1894.07ZM2751 1891.02C2738.43 1891.02 2727.23 1892.88 2717.41 1896.59 2707.59 1900.3 2698.94 1905.24 2691.46 1911.4 2683.97 1917.56 2677.6 1924.71 2672.33 1932.85 2667.06 1940.99 2662.75 1949.52 2659.39 1958.44 2656.04 1967.35 2653.61 1976.39 2652.12 1985.55 2650.62 1994.7 2649.87 2003.29 2649.87 2011.31 2649.87 2021.72 2651.31 2030.73 2654.18 2038.33 2657.06 2045.93 2661.37 2052.19 2667.12 2057.09 2672.86 2062 2680.02 2065.65 2688.58 2068.04 2697.15 2070.44 2707.17 2071.63 2718.67 2071.63 2725.62 2071.63 2732.44 2071.25 2739.15 2070.47 2745.85 2069.69 2751.9 2068.7 2757.29 2067.51 2762.68 2066.31 2767.29 2064.99 2771.12 2063.56 2774.96 2062.12 2777.59 2060.68 2779.03 2059.25 2780.34 2058.05 2781.51 2056.31 2782.53 2054.04 2783.55 2051.77 2784.39 2049.34 2785.04 2046.77 2785.7 2044.2 2786.21 2041.59 2786.57 2038.96 2786.93 2036.33 2787.11 2033.99 2787.11 2031.96 2787.11 2030.16 2786.81 2028.85 2786.21 2028.01 2785.61 2027.17 2784.59 2026.75 2783.16 2026.75 2781.72 2026.75 2779.45 2027.32 2776.33 2028.46 2773.22 2029.59 2769.3 2030.85 2764.57 2032.23 2759.84 2033.6 2754.33 2034.86 2748.04 2036 2741.75 2037.13 2734.66 2037.7 2726.75 2037.7 2715.62 2037.7 2707.53 2035.25 2702.5 2030.34 2697.47 2025.43 2694.96 2018.13 2694.96 2008.44 2694.96 2006.16 2695.08 2003.68 2695.32 2000.99 2695.56 1998.29 2695.92 1995.57 2696.4 1992.82L2712.92 1992.82C2730.41 1992.82 2745.47 1991.5 2758.1 1988.87 2770.73 1986.24 2781.15 1982.44 2789.36 1977.47 2797.56 1972.5 2803.61 1966.58 2807.5 1959.69 2811.39 1952.81 2813.34 1945.06 2813.34 1936.44 2813.34 1930.7 2812.11 1925.1 2809.65 1919.66 2807.2 1914.21 2803.46 1909.36 2798.43 1905.12 2793.4 1900.87 2786.96 1897.46 2779.12 1894.88 2771.27 1892.31 2761.9 1891.02 2751 1891.02ZM2537.77 1869.84C2546.03 1869.84 2553.09 1870.94 2558.96 1873.16 2564.83 1875.37 2569.56 1878.51 2573.15 1882.58 2576.75 1886.65 2579.35 1891.65 2580.97 1897.58 2582.58 1903.5 2583.39 1910.11 2583.39 1917.41 2583.39 1923.76 2582.88 1931 2581.87 1939.14 2580.85 1947.28 2579.14 1955.59 2576.75 1964.09 2574.35 1972.59 2571.15 1980.97 2567.14 1989.23 2563.12 1997.49 2558.21 2004.82 2552.41 2011.22 2546.6 2017.62 2539.74 2022.8 2531.84 2026.75 2523.93 2030.7 2514.83 2032.68 2504.53 2032.68 2496.15 2032.68 2489.06 2031.6 2483.25 2029.44 2477.44 2027.29 2472.71 2024.21 2469.06 2020.2 2465.41 2016.19 2462.77 2011.25 2461.15 2005.39 2459.54 1999.52 2458.73 1992.88 2458.73 1985.46 2458.73 1979.35 2459.24 1972.23 2460.26 1964.09 2461.27 1955.95 2462.98 1947.61 2465.38 1939.05 2467.77 1930.49 2470.94 1922.05 2474.9 1913.73 2478.85 1905.42 2483.73 1898.02 2489.54 1891.56 2495.34 1885.1 2502.23 1879.86 2510.19 1875.85 2518.16 1871.84 2527.35 1869.84 2537.77 1869.84ZM1296.46 1855.69C1283.03 1855.69 1270.81 1857.73 1259.79 1861.81 1248.78 1865.89 1238.95 1871.39 1230.3 1878.32 1221.65 1885.25 1214.16 1893.33 1207.82 1902.56 1201.48 1911.8 1196.24 1921.57 1192.1 1931.88 1187.97 1942.19 1184.88 1952.74 1182.84 1963.53 1180.8 1974.32 1179.78 1984.71 1179.78 1994.7 1179.78 2007.48 1181.55 2018.64 1185.09 2028.2 1188.64 2037.76 1193.69 2045.71 1200.24 2052.04 1206.8 2058.38 1214.78 2063.1 1224.18 2066.22 1233.58 2069.33 1244.13 2070.89 1255.84 2070.89 1262.94 2070.89 1269.6 2070.32 1275.83 2069.2 1282.06 2068.07 1287.65 2066.7 1292.59 2065.09 1297.53 2063.48 1301.72 2061.73 1305.16 2059.85 1308.6 2057.98 1310.91 2056.44 1312.09 2055.26 1313.27 2054.08 1314.21 2052.71 1314.91 2051.16 1315.61 2049.6 1316.23 2047.88 1316.77 2046 1317.3 2044.12 1317.79 2042.08 1318.22 2039.88 1318.65 2037.68 1319.02 2035.64 1319.34 2033.76 1319.67 2031.88 1319.93 2030.19 1320.15 2028.69 1320.36 2027.18 1320.47 2026.05 1320.47 2025.3 1320.47 2023.48 1320.23 2022.05 1319.75 2021.03 1319.26 2020.01 1318.32 2019.5 1316.93 2019.5 1314.88 2019.5 1312.6 2020.31 1310.08 2021.92 1307.55 2023.53 1304.38 2025.3 1300.57 2027.24 1296.75 2029.17 1292.13 2030.94 1286.71 2032.55 1281.28 2034.16 1274.76 2034.97 1267.13 2034.97 1260.68 2034.97 1254.88 2034.03 1249.72 2032.15 1244.56 2030.27 1240.21 2027.45 1236.67 2023.69 1233.12 2019.93 1230.41 2015.21 1228.53 2009.52 1226.65 2003.83 1225.71 1997.22 1225.71 1989.7 1225.71 1983.48 1226.33 1976.74 1227.56 1969.49 1228.8 1962.24 1230.68 1954.97 1233.2 1947.66 1235.73 1940.36 1238.92 1933.33 1242.79 1926.56 1246.66 1919.8 1251.17 1913.81 1256.33 1908.6 1261.49 1903.39 1267.34 1899.21 1273.9 1896.04 1280.45 1892.87 1287.7 1891.29 1295.65 1891.29 1302.85 1891.29 1308.87 1892.17 1313.7 1893.94 1318.54 1895.71 1322.51 1897.62 1325.63 1899.66 1328.74 1901.7 1331.27 1903.61 1333.2 1905.38 1335.14 1907.15 1336.8 1908.04 1338.2 1908.04 1340.13 1908.04 1341.88 1906.51 1343.44 1903.45 1345 1900.39 1346.28 1896.33 1347.31 1891.29 1348.33 1886.24 1348.84 1882.21 1348.84 1879.2 1348.84 1875.98 1347.84 1873.33 1345.85 1871.23 1343.87 1869.14 1340.38 1866.8 1335.38 1864.22 1330.38 1861.65 1324.53 1859.58 1317.81 1858.02 1311.1 1856.47 1303.98 1855.69 1296.46 1855.69ZM1664.5 1843.28C1660.53 1843.28 1657.22 1843.45 1654.59 1843.77 1651.96 1844.09 1649.78 1844.55 1648.06 1845.14 1646.34 1845.73 1645.11 1846.45 1644.36 1847.31 1643.6 1848.17 1643.12 1849.14 1642.91 1850.21L1600.52 2062.03C1600.31 2063.1 1600.44 2064.04 1600.92 2064.85 1601.41 2065.65 1602.35 2066.32 1603.74 2066.86 1605.14 2067.4 1607.1 2067.8 1609.63 2068.07 1612.15 2068.34 1615.45 2068.47 1619.54 2068.47 1623.41 2068.47 1626.68 2068.34 1629.37 2068.07 1632.05 2067.8 1634.2 2067.4 1635.82 2066.86 1637.43 2066.32 1638.64 2065.65 1639.44 2064.85 1640.25 2064.04 1640.76 2063.1 1640.97 2062.03L1683.2 1850.21C1683.41 1849.14 1683.3 1848.17 1682.88 1847.31 1682.45 1846.45 1681.53 1845.73 1680.14 1845.14 1678.74 1844.55 1676.78 1844.09 1674.25 1843.77 1671.73 1843.45 1668.48 1843.28 1664.5 1843.28ZM1581.99 1843.28C1578.01 1843.28 1574.71 1843.45 1572.07 1843.77 1569.44 1844.09 1567.27 1844.55 1565.55 1845.14 1563.83 1845.73 1562.59 1846.45 1561.84 1847.31 1561.09 1848.17 1560.61 1849.14 1560.39 1850.21L1518 2062.03C1517.79 2063.1 1517.92 2064.04 1518.41 2064.85 1518.89 2065.65 1519.83 2066.32 1521.23 2066.86 1522.62 2067.4 1524.59 2067.8 1527.11 2068.07 1529.64 2068.34 1532.94 2068.47 1537.02 2068.47 1540.89 2068.47 1544.17 2068.34 1546.85 2068.07 1549.54 2067.8 1551.69 2067.4 1553.3 2066.86 1554.91 2066.32 1556.12 2065.65 1556.93 2064.85 1557.73 2064.04 1558.24 2063.1 1558.46 2062.03L1600.68 1850.21C1600.9 1849.14 1600.79 1848.17 1600.36 1847.31 1599.93 1846.45 1599.02 1845.73 1597.62 1845.14 1596.22 1844.55 1594.26 1844.09 1591.74 1843.77 1589.21 1843.45 1585.96 1843.28 1581.99 1843.28ZM3230.42 1842C3226.66 1842 3223.49 1842.18 3220.91 1842.56 3218.33 1842.94 3216.16 1843.71 3214.39 1844.9 3212.61 1846.08 3211.19 1847.77 3210.12 1849.97 3209.04 1852.17 3208.18 1855.1 3207.54 1858.75L3202.86 1882.27 3175.14 1926.08C3174.18 1927.69 3173.59 1929 3173.37 1930.03 3173.16 1931.04 3173.42 1931.9 3174.18 1932.6 3174.93 1933.3 3176.16 1933.78 3177.88 1934.05 3179.6 1934.32 3181.86 1934.45 3184.65 1934.45 3189.59 1934.45 3193.44 1934 3196.18 1933.09 3198.92 1932.17 3201.25 1930.64 3203.19 1928.49L3229.46 1897.73C3235.36 1890.96 3239.9 1883.74 3243.07 1876.06 3246.24 1868.39 3247.94 1860.68 3248.15 1852.95 3248.15 1850.91 3247.91 1849.22 3247.42 1847.88 3246.94 1846.53 3246.06 1845.4 3244.77 1844.49 3243.48 1843.58 3241.68 1842.94 3239.37 1842.56 3237.06 1842.18 3234.08 1842 3230.42 1842ZM3167.08 1842C3163.32 1842 3160.16 1842.18 3157.58 1842.56 3155 1842.94 3152.82 1843.71 3151.05 1844.9 3149.28 1846.08 3147.85 1847.77 3146.78 1849.97 3145.7 1852.17 3144.84 1855.1 3144.2 1858.75L3139.36 1882.27 3111.65 1926.08C3110.79 1927.69 3110.25 1929 3110.03 1930.03 3109.82 1931.04 3110.06 1931.9 3110.76 1932.6 3111.46 1933.3 3112.67 1933.78 3114.38 1934.05 3116.1 1934.32 3118.41 1934.45 3121.31 1934.45 3126.26 1934.45 3130.1 1934 3132.84 1933.09 3135.58 1932.17 3137.86 1930.64 3139.69 1928.49L3166.12 1897.73C3172.03 1890.96 3176.59 1883.74 3179.82 1876.06 3183.04 1868.39 3184.71 1860.68 3184.81 1852.95 3184.81 1850.91 3184.57 1849.22 3184.09 1847.88 3183.6 1846.53 3182.69 1845.4 3181.35 1844.49 3180.01 1843.58 3178.18 1842.94 3175.87 1842.56 3173.56 1842.18 3170.63 1842 3167.08 1842ZM2404.46 1842C2399.52 1842 2395.68 1842.48 2392.94 1843.45 2390.2 1844.41 2387.91 1845.91 2386.09 1847.96L2359.66 1878.72C2353.75 1885.49 2349.21 1892.74 2346.04 1900.47 2342.87 1908.2 2341.18 1915.93 2340.96 1923.66 2340.96 1925.6 2341.2 1927.26 2341.69 1928.66 2342.17 1930.05 2343.08 1931.18 2344.43 1932.04 2345.77 1932.9 2347.57 1933.51 2349.82 1933.89 2352.08 1934.27 2355.03 1934.45 2358.69 1934.45 2362.45 1934.45 2365.62 1934.27 2368.2 1933.89 2370.78 1933.51 2372.95 1932.74 2374.72 1931.56 2376.5 1930.37 2377.92 1928.68 2378.99 1926.48 2380.07 1924.28 2380.93 1921.35 2381.57 1917.7L2386.41 1894.18 2414.13 1850.37C2414.99 1848.87 2415.53 1847.58 2415.74 1846.51 2415.96 1845.43 2415.69 1844.57 2414.93 1843.93 2414.18 1843.28 2412.95 1842.8 2411.23 1842.48 2409.51 1842.16 2407.25 1842 2404.46 1842ZM2341.12 1842C2336.18 1842 2332.34 1842.48 2329.6 1843.45 2326.86 1844.41 2324.58 1845.91 2322.75 1847.96L2296.16 1878.72C2290.35 1885.49 2285.87 1892.74 2282.7 1900.47 2279.53 1908.2 2277.84 1915.93 2277.62 1923.66 2277.62 1925.6 2277.86 1927.26 2278.35 1928.66 2278.83 1930.05 2279.74 1931.18 2281.09 1932.04 2282.43 1932.9 2284.23 1933.51 2286.49 1933.89 2288.74 1934.27 2291.7 1934.45 2295.35 1934.45 2299.11 1934.45 2302.28 1934.27 2304.86 1933.89 2307.44 1933.51 2309.61 1932.74 2311.39 1931.56 2313.16 1930.37 2314.58 1928.68 2315.66 1926.48 2316.73 1924.28 2317.59 1921.35 2318.24 1917.7L2323.07 1894.18 2350.63 1850.37C2351.6 1848.87 2352.19 1847.58 2352.4 1846.51 2352.62 1845.43 2352.35 1844.57 2351.6 1843.93 2350.84 1843.28 2349.64 1842.8 2347.97 1842.48 2346.31 1842.16 2344.02 1842 2341.12 1842ZM2544.05 1831.06C2527.05 1831.06 2511.93 1833.42 2498.7 1838.15 2485.46 1842.88 2473.85 1849.31 2463.85 1857.45 2453.85 1865.59 2445.35 1874.98 2438.34 1885.64 2431.34 1896.29 2425.65 1907.51 2421.28 1919.3 2416.9 1931.09 2413.73 1943.12 2411.76 1955.39 2409.78 1967.65 2408.79 1979.41 2408.79 1990.66 2408.79 2004.43 2410.74 2016.4 2414.63 2026.57 2418.52 2036.74 2424.24 2045.18 2431.78 2051.89 2439.33 2058.59 2448.67 2063.56 2459.81 2066.79 2470.94 2070.02 2483.76 2071.63 2498.25 2071.63 2507.59 2071.63 2516.06 2070.89 2523.67 2069.39 2531.27 2067.89 2538.25 2065.71 2544.59 2062.84 2548.66 2068.58 2553.03 2073.7 2557.71 2078.19 2562.38 2082.68 2567.05 2086.66 2571.72 2090.13 2576.39 2093.6 2580.97 2096.53 2585.46 2098.92 2589.95 2101.32 2594.05 2103.26 2597.76 2104.76 2601.48 2106.25 2604.68 2107.33 2607.37 2107.99 2610.07 2108.65 2612.01 2108.98 2613.21 2108.98 2614.65 2108.98 2615.94 2108.35 2617.07 2107.09 2618.21 2105.84 2619.26 2104.22 2620.22 2102.25 2621.17 2100.27 2622.01 2098.06 2622.73 2095.6 2623.45 2093.15 2624.05 2090.73 2624.53 2088.33 2625.01 2085.94 2625.37 2083.72 2625.61 2081.69 2625.84 2079.65 2625.96 2078.1 2625.96 2077.02 2625.96 2075.23 2625.84 2073.91 2625.61 2073.07 2625.37 2072.23 2624.83 2071.4 2623.99 2070.56 2623.15 2069.72 2621.5 2068.88 2619.05 2068.04 2616.59 2067.21 2613.54 2065.86 2609.89 2064 2606.24 2062.15 2602.01 2059.61 2597.22 2056.37 2592.43 2053.14 2587.22 2048.59 2581.6 2042.73 2588.06 2036.86 2593.84 2030.61 2598.93 2023.97 2604.02 2017.33 2608.45 2010.32 2612.22 2002.96 2616 1995.6 2619.23 1988.06 2621.92 1980.34 2624.62 1972.62 2626.8 1964.93 2628.48 1957.27 2630.16 1949.61 2631.38 1942.01 2632.16 1934.47 2632.94 1926.93 2633.33 1919.75 2633.33 1912.93 2633.33 1899.04 2631.38 1886.95 2627.49 1876.66 2623.6 1866.37 2617.88 1857.84 2610.34 1851.08 2602.79 1844.31 2593.45 1839.29 2582.31 1835.99 2571.18 1832.7 2558.42 1831.06 2544.05 1831.06ZM3681.25 1195.1C3675.66 1195.1 3671.31 1195.61 3668.2 1196.63 3665.08 1197.66 3662.66 1199 3660.94 1200.66 3659.23 1202.33 3657.8 1204.39 3656.67 1206.86 3655.55 1209.33 3654.63 1211.94 3653.93 1214.68 3653.24 1217.41 3652.7 1220.07 3652.32 1222.65 3651.95 1225.23 3651.76 1227.37 3651.76 1229.09 3651.76 1231.78 3652.08 1234.11 3652.72 1236.1 3653.37 1238.09 3654.47 1239.72 3656.03 1241.01 3657.59 1242.3 3659.68 1243.27 3662.31 1243.91 3664.95 1244.56 3668.25 1244.88 3672.23 1244.88 3677.6 1244.88 3681.92 1244.37 3685.2 1243.35 3688.48 1242.33 3690.95 1240.98 3692.61 1239.32 3694.28 1237.66 3695.67 1235.56 3696.8 1233.04 3697.93 1230.52 3698.84 1227.88 3699.54 1225.15 3700.24 1222.41 3700.75 1219.75 3701.07 1217.17 3701.4 1214.6 3701.56 1212.5 3701.56 1210.89 3701.56 1208.53 3701.32 1206.35 3700.83 1204.37 3700.35 1202.38 3699.35 1200.72 3697.85 1199.37 3696.35 1198.03 3694.25 1196.98 3691.57 1196.23 3688.88 1195.48 3685.44 1195.1 3681.25 1195.1ZM2851.15 1118.91C2857.17 1118.91 2862.46 1120.39 2867.03 1123.34 2871.59 1126.3 2875.75 1130.73 2879.52 1136.63L2875 1158.38C2873.5 1165.79 2871.11 1172.74 2867.83 1179.24 2864.55 1185.74 2860.77 1191.43 2856.47 1196.31 2852.17 1201.2 2847.55 1205.06 2842.61 1207.91 2837.67 1210.76 2832.83 1212.18 2828.1 1212.18 2824.77 1212.18 2822.03 1211.51 2819.88 1210.17 2817.74 1208.82 2816.02 1207.02 2814.73 1204.77 2813.44 1202.51 2812.55 1199.94 2812.07 1197.04 2811.58 1194.14 2811.34 1191.08 2811.34 1187.86 2811.34 1183.45 2811.69 1178.65 2812.39 1173.44 2813.09 1168.23 2814.16 1163.08 2815.61 1157.98 2817.06 1152.88 2818.89 1147.96 2821.09 1143.24 2823.3 1138.51 2825.85 1134.35 2828.75 1130.75 2831.65 1127.16 2834.98 1124.28 2838.74 1122.14 2842.5 1119.99 2846.64 1118.91 2851.15 1118.91ZM1970.98 1118.91C1977 1118.91 1982.29 1120.39 1986.86 1123.34 1991.42 1126.3 1995.59 1130.73 1999.35 1136.63L1994.83 1158.38C1993.33 1165.79 1990.94 1172.74 1987.66 1179.24 1984.39 1185.74 1980.6 1191.43 1976.3 1196.31 1972 1201.2 1967.38 1205.06 1962.44 1207.91 1957.5 1210.76 1952.66 1212.18 1947.94 1212.18 1944.6 1212.18 1941.87 1211.51 1939.72 1210.17 1937.57 1208.82 1935.85 1207.02 1934.56 1204.77 1933.27 1202.51 1932.38 1199.94 1931.9 1197.04 1931.42 1194.14 1931.17 1191.08 1931.17 1187.86 1931.17 1183.45 1931.52 1178.65 1932.22 1173.44 1932.92 1168.23 1933.99 1163.08 1935.45 1157.98 1936.9 1152.88 1938.72 1147.96 1940.92 1143.24 1943.13 1138.51 1945.68 1134.35 1948.58 1130.75 1951.48 1127.16 1954.81 1124.28 1958.57 1122.14 1962.33 1119.99 1966.47 1118.91 1970.98 1118.91ZM1678.74 1118.91C1684.76 1118.91 1690.05 1120.39 1694.61 1123.34 1699.18 1126.3 1703.34 1130.73 1707.1 1136.63L1702.59 1158.38C1701.09 1165.79 1698.7 1172.74 1695.42 1179.24 1692.14 1185.74 1688.35 1191.43 1684.06 1196.31 1679.76 1201.2 1675.14 1205.06 1670.2 1207.91 1665.25 1210.76 1660.42 1212.18 1655.69 1212.18 1652.36 1212.18 1649.62 1211.51 1647.47 1210.17 1645.32 1208.82 1643.6 1207.02 1642.32 1204.77 1641.03 1202.51 1640.14 1199.94 1639.66 1197.04 1639.17 1194.14 1638.93 1191.08 1638.93 1187.86 1638.93 1183.45 1639.28 1178.65 1639.98 1173.44 1640.68 1168.23 1641.75 1163.08 1643.2 1157.98 1644.65 1152.88 1646.48 1147.96 1648.68 1143.24 1650.88 1138.51 1653.44 1134.35 1656.34 1130.75 1659.24 1127.16 1662.57 1124.28 1666.33 1122.14 1670.09 1119.99 1674.23 1118.91 1678.74 1118.91ZM3306.38 1118.75C3309.39 1118.75 3311.94 1119.29 3314.04 1120.36 3316.13 1121.44 3317.85 1123.02 3319.2 1125.12 3320.54 1127.21 3321.51 1129.76 3322.1 1132.77 3322.69 1135.77 3322.98 1139.1 3322.98 1142.75 3322.98 1147.37 3322.63 1152.28 3321.94 1157.49 3321.24 1162.7 3320.16 1167.88 3318.71 1173.04 3317.26 1178.19 3315.44 1183.13 3313.23 1187.86 3311.03 1192.58 3308.45 1196.74 3305.5 1200.34 3302.54 1203.94 3299.21 1206.81 3295.51 1208.96 3291.8 1211.11 3287.74 1212.18 3283.34 1212.18 3277.32 1212.18 3272.03 1210.7 3267.46 1207.75 3262.9 1204.8 3258.73 1200.37 3254.97 1194.46L3259.49 1172.55C3260.88 1165.14 3263.25 1158.19 3266.58 1151.69 3269.91 1145.2 3273.72 1139.51 3278.02 1134.62 3282.32 1129.73 3286.91 1125.87 3291.8 1123.02 3296.69 1120.18 3301.55 1118.75 3306.38 1118.75ZM3472.22 1116.34C3476.95 1116.34 3480.95 1116.98 3484.23 1118.27 3487.51 1119.56 3490.19 1121.41 3492.29 1123.83 3494.38 1126.24 3495.89 1129.2 3496.8 1132.69 3497.71 1136.18 3498.17 1140.18 3498.17 1144.69 3498.17 1149.52 3497.79 1154.57 3497.04 1159.83 3496.29 1165.09 3495.11 1170.33 3493.5 1175.53 3491.88 1180.74 3489.84 1185.68 3487.37 1190.35 3484.9 1195.02 3481.97 1199.16 3478.59 1202.76 3475.2 1206.35 3471.36 1209.2 3467.06 1211.29 3462.77 1213.39 3457.93 1214.43 3452.56 1214.43 3447.83 1214.43 3443.83 1213.79 3440.55 1212.5 3437.28 1211.21 3434.59 1209.36 3432.49 1206.94 3430.4 1204.53 3428.9 1201.55 3427.98 1198 3427.07 1194.46 3426.61 1190.43 3426.61 1185.92 3426.61 1181.09 3426.99 1176.02 3427.74 1170.7 3428.49 1165.39 3429.67 1160.15 3431.29 1155 3432.9 1149.84 3434.94 1144.93 3437.41 1140.26 3439.88 1135.59 3442.81 1131.48 3446.19 1127.93 3449.58 1124.39 3453.42 1121.57 3457.72 1119.48 3462.01 1117.38 3466.85 1116.34 3472.22 1116.34ZM2400.16 1087.18C2396.19 1087.18 2392.88 1087.34 2390.25 1087.67 2387.62 1087.99 2385.47 1088.44 2383.8 1089.03 2382.14 1089.63 2380.9 1090.32 2380.1 1091.13 2379.29 1091.93 2378.78 1092.87 2378.56 1093.95L2350.04 1237.31C2349.82 1238.38 2349.93 1239.32 2350.36 1240.13 2350.79 1240.93 2351.73 1241.6 2353.18 1242.14 2354.63 1242.68 2356.62 1243.08 2359.14 1243.35 2361.67 1243.62 2364.92 1243.75 2368.9 1243.75 2372.76 1243.75 2376.04 1243.62 2378.73 1243.35 2381.41 1243.08 2383.59 1242.68 2385.25 1242.14 2386.92 1241.6 2388.15 1240.93 2388.96 1240.13 2389.77 1239.32 2390.28 1238.38 2390.49 1237.31L2419.02 1093.95C2419.23 1092.87 2419.12 1091.93 2418.69 1091.13 2418.26 1090.32 2417.32 1089.63 2415.87 1089.03 2414.42 1088.44 2412.44 1087.99 2409.91 1087.67 2407.39 1087.34 2404.14 1087.18 2400.16 1087.18ZM3659.01 1084.44C3655.03 1084.44 3651.01 1085.25 3646.92 1086.86 3642.84 1088.47 3638.89 1090.7 3635.08 1093.54 3631.26 1096.39 3627.66 1099.75 3624.28 1103.61 3620.9 1107.48 3617.91 1111.72 3615.33 1116.34L3619.85 1093.46C3620.06 1092.39 3619.98 1091.45 3619.61 1090.65 3619.23 1089.84 3618.45 1089.2 3617.27 1088.71 3616.09 1088.23 3614.45 1087.85 3612.35 1087.58 3610.26 1087.32 3607.55 1087.18 3604.21 1087.18 3600.99 1087.18 3598.22 1087.32 3595.91 1087.58 3593.6 1087.85 3591.72 1088.23 3590.27 1088.71 3588.82 1089.2 3587.72 1089.84 3586.97 1090.65 3586.22 1091.45 3585.73 1092.39 3585.52 1093.46L3556.83 1237.31C3556.62 1238.38 3556.72 1239.32 3557.15 1240.13 3557.58 1240.93 3558.52 1241.6 3559.98 1242.14 3561.43 1242.68 3563.41 1243.08 3565.94 1243.35 3568.46 1243.62 3571.71 1243.75 3575.69 1243.75 3579.56 1243.75 3582.83 1243.62 3585.52 1243.35 3588.21 1243.08 3590.38 1242.68 3592.05 1242.14 3593.71 1241.6 3594.95 1240.93 3595.75 1240.13 3596.56 1239.32 3597.07 1238.38 3597.28 1237.31L3610.18 1172.71C3611.47 1166.06 3613.59 1159.69 3616.54 1153.63 3619.5 1147.56 3622.86 1142.24 3626.62 1137.68 3630.38 1133.12 3634.33 1129.44 3638.46 1126.65 3642.6 1123.85 3646.49 1122.46 3650.15 1122.46 3651.97 1122.46 3653.58 1122.65 3654.98 1123.02 3656.38 1123.4 3657.67 1123.77 3658.85 1124.15 3660.03 1124.53 3661.11 1124.9 3662.07 1125.28 3663.04 1125.65 3664.01 1125.84 3664.97 1125.84 3666.16 1125.84 3667.26 1125.09 3668.28 1123.59 3669.3 1122.08 3670.21 1120.15 3671.02 1117.79 3671.82 1115.42 3672.55 1112.87 3673.19 1110.14 3673.84 1107.4 3674.37 1104.74 3674.8 1102.16 3675.23 1099.59 3675.56 1097.33 3675.77 1095.4 3675.99 1093.46 3676.09 1092.12 3676.09 1091.37 3676.09 1089.97 3675.77 1088.95 3675.13 1088.31 3674.48 1087.77 3673.6 1087.26 3672.47 1086.78 3671.34 1086.3 3670.05 1085.89 3668.6 1085.57 3667.15 1085.25 3665.59 1084.98 3663.93 1084.77 3662.26 1084.55 3660.62 1084.44 3659.01 1084.44ZM3476.57 1084.44C3465.51 1084.44 3455.57 1085.95 3446.76 1088.95 3437.95 1091.96 3430.13 1096.04 3423.31 1101.2 3416.49 1106.35 3410.63 1112.39 3405.74 1119.32 3400.85 1126.24 3396.85 1133.57 3393.74 1141.3 3390.62 1149.04 3388.34 1156.98 3386.89 1165.14 3385.43 1173.31 3384.71 1181.25 3384.71 1188.98 3384.71 1198.22 3386 1206.41 3388.58 1213.55 3391.16 1220.69 3395.08 1226.7 3400.34 1231.59 3405.61 1236.47 3412.19 1240.18 3420.09 1242.7 3427.98 1245.23 3437.36 1246.49 3448.21 1246.49 3459.27 1246.49 3469.21 1244.99 3478.02 1241.98 3486.83 1238.97 3494.65 1234.86 3501.47 1229.66 3508.3 1224.45 3514.15 1218.43 3519.04 1211.61 3523.93 1204.8 3527.93 1197.49 3531.05 1189.71 3534.16 1181.92 3536.45 1173.95 3537.9 1165.79 3539.35 1157.63 3540.07 1149.68 3540.07 1141.95 3540.07 1132.71 3538.78 1124.53 3536.2 1117.38 3533.62 1110.24 3529.7 1104.23 3524.44 1099.34 3519.17 1094.46 3512.59 1090.75 3504.7 1088.23 3496.8 1085.71 3487.42 1084.44 3476.57 1084.44ZM3320.24 1084.44C3314.01 1084.44 3307.97 1085.46 3302.11 1087.5 3296.26 1089.54 3290.89 1092.15 3286 1095.32 3281.11 1098.48 3276.92 1101.97 3273.43 1105.79 3269.93 1109.6 3267.38 1113.28 3265.77 1116.82L3270.28 1093.46C3270.5 1092.39 3270.39 1091.45 3269.96 1090.65 3269.53 1089.84 3268.7 1089.2 3267.46 1088.71 3266.23 1088.23 3264.56 1087.85 3262.47 1087.58 3260.37 1087.32 3257.66 1087.18 3254.33 1087.18 3247.67 1087.18 3242.89 1087.67 3239.98 1088.63 3237.08 1089.6 3235.42 1091.21 3234.99 1093.46L3194.7 1294.33C3194.48 1295.4 3194.59 1296.37 3195.02 1297.23 3195.45 1298.09 3196.39 1298.81 3197.84 1299.4 3199.29 1299.99 3201.25 1300.45 3203.72 1300.77 3206.19 1301.09 3209.42 1301.26 3213.39 1301.26 3217.37 1301.26 3220.7 1301.09 3223.39 1300.77 3226.07 1300.45 3228.25 1299.99 3229.91 1299.4 3231.58 1298.81 3232.81 1298.09 3233.62 1297.23 3234.42 1296.37 3234.94 1295.4 3235.15 1294.33L3247.88 1229.41C3249.82 1231.78 3252.07 1234.01 3254.65 1236.1 3257.23 1238.19 3260.1 1240.02 3263.27 1241.58 3266.44 1243.13 3269.91 1244.34 3273.67 1245.2 3277.43 1246.06 3281.46 1246.49 3285.75 1246.49 3295.21 1246.49 3303.72 1244.82 3311.3 1241.5 3318.87 1238.17 3325.59 1233.71 3331.45 1228.13 3337.3 1222.54 3342.32 1216.07 3346.51 1208.72 3350.7 1201.36 3354.14 1193.71 3356.83 1185.76 3359.51 1177.82 3361.5 1169.82 3362.79 1161.76 3364.08 1153.71 3364.73 1146.19 3364.73 1139.21 3364.73 1131.59 3363.95 1124.44 3362.39 1117.79 3360.83 1111.13 3358.31 1105.33 3354.81 1100.39 3351.32 1095.45 3346.76 1091.56 3341.11 1088.71 3335.47 1085.87 3328.52 1084.44 3320.24 1084.44ZM3054.7 1084.44C3048.68 1084.44 3042.85 1085.44 3037.21 1087.42 3031.57 1089.41 3026.36 1091.96 3021.58 1095.07 3016.8 1098.19 3012.53 1101.71 3008.77 1105.63 3005.01 1109.55 3002 1113.38 2999.74 1117.14L3004.42 1093.46C3004.63 1092.39 3004.55 1091.45 3004.18 1090.65 3003.8 1089.84 3003.02 1089.2 3001.84 1088.71 3000.66 1088.23 2999.02 1087.85 2996.92 1087.58 2994.83 1087.32 2992.11 1087.18 2988.78 1087.18 2985.56 1087.18 2982.79 1087.32 2980.48 1087.58 2978.17 1087.85 2976.29 1088.23 2974.84 1088.71 2973.39 1089.2 2972.32 1089.84 2971.62 1090.65 2970.92 1091.45 2970.47 1092.39 2970.25 1093.46L2941.4 1237.31C2941.19 1238.38 2941.29 1239.32 2941.72 1240.13 2942.15 1240.93 2943.09 1241.6 2944.55 1242.14 2946 1242.68 2947.98 1243.08 2950.51 1243.35 2953.03 1243.62 2956.28 1243.75 2960.26 1243.75 2964.13 1243.75 2967.4 1243.62 2970.09 1243.35 2972.78 1243.08 2974.95 1242.68 2976.62 1242.14 2978.28 1241.6 2979.52 1240.93 2980.32 1240.13 2981.13 1239.32 2981.64 1238.38 2981.85 1237.31L2994.91 1172.23C2996.31 1165.04 2998.64 1158.24 3001.92 1151.86 3005.2 1145.47 3008.96 1139.88 3013.2 1135.1 3017.44 1130.32 3021.88 1126.54 3026.5 1123.75 3031.12 1120.95 3035.58 1119.56 3039.87 1119.56 3044.6 1119.56 3047.93 1121.09 3049.87 1124.15 3051.8 1127.21 3052.77 1131.1 3052.77 1135.83 3052.77 1138.3 3052.63 1140.85 3052.36 1143.48 3052.09 1146.11 3051.64 1148.66 3050.99 1151.13L3033.91 1237.31C3033.7 1238.38 3033.83 1239.32 3034.31 1240.13 3034.8 1240.93 3035.74 1241.6 3037.13 1242.14 3038.53 1242.68 3040.49 1243.08 3043.02 1243.35 3045.54 1243.62 3048.74 1243.75 3052.61 1243.75 3056.58 1243.75 3059.88 1243.62 3062.52 1243.35 3065.15 1243.08 3067.32 1242.68 3069.04 1242.14 3070.76 1241.6 3072.03 1240.93 3072.83 1240.13 3073.64 1239.32 3074.15 1238.38 3074.36 1237.31L3087.42 1172.23C3088.81 1165.04 3091.15 1158.24 3094.43 1151.86 3097.7 1145.47 3101.46 1139.88 3105.71 1135.1 3109.95 1130.32 3114.38 1126.54 3119 1123.75 3123.62 1120.95 3128.08 1119.56 3132.38 1119.56 3137.22 1119.56 3140.57 1121.12 3142.45 1124.23 3144.33 1127.34 3145.27 1131.43 3145.27 1136.47 3145.27 1138.94 3145.11 1141.38 3144.79 1143.8 3144.47 1146.22 3144.09 1148.66 3143.66 1151.13L3126.42 1237.31C3126.1 1238.38 3126.18 1239.32 3126.66 1240.13 3127.14 1240.93 3128.08 1241.6 3129.48 1242.14 3130.88 1242.68 3132.86 1243.08 3135.44 1243.35 3138.02 1243.62 3141.25 1243.75 3145.11 1243.75 3149.09 1243.75 3152.39 1243.62 3155.02 1243.35 3157.66 1243.08 3159.83 1242.68 3161.55 1242.14 3163.27 1241.6 3164.53 1240.93 3165.34 1240.13 3166.15 1239.32 3166.66 1238.38 3166.87 1237.31L3184.6 1148.55C3185.46 1144.58 3186.1 1140.69 3186.53 1136.87 3186.96 1133.06 3187.18 1129.28 3187.18 1125.52 3187.18 1119.72 3186.48 1114.32 3185.08 1109.33 3183.69 1104.34 3181.43 1099.99 3178.31 1096.28 3175.2 1092.58 3171.09 1089.68 3165.98 1087.58 3160.88 1085.49 3154.57 1084.44 3147.05 1084.44 3141.14 1084.44 3135.39 1085.44 3129.8 1087.42 3124.22 1089.41 3119.03 1091.96 3114.25 1095.07 3109.47 1098.19 3105.17 1101.68 3101.36 1105.55 3097.54 1109.41 3094.4 1113.28 3091.93 1117.14 3091.5 1112.53 3090.51 1108.23 3088.95 1104.26 3087.39 1100.28 3085.13 1096.82 3082.18 1093.87 3079.22 1090.91 3075.46 1088.6 3070.9 1086.94 3066.33 1085.28 3060.93 1084.44 3054.7 1084.44ZM2848.73 1084.44C2839.17 1084.44 2830.6 1086.14 2823.03 1089.52 2815.45 1092.9 2808.74 1097.44 2802.88 1103.13 2797.03 1108.82 2792 1115.34 2787.81 1122.7 2783.62 1130.06 2780.18 1137.71 2777.5 1145.65 2774.81 1153.6 2772.82 1161.57 2771.54 1169.57 2770.25 1177.57 2769.6 1184.96 2769.6 1191.72 2769.6 1198.92 2770.33 1205.79 2771.78 1212.34 2773.23 1218.89 2775.67 1224.72 2779.11 1229.82 2782.55 1234.92 2787.11 1238.97 2792.81 1241.98 2798.5 1244.99 2805.65 1246.49 2814.24 1246.49 2820.48 1246.49 2826.52 1245.47 2832.38 1243.43 2838.23 1241.39 2843.58 1238.81 2848.41 1235.7 2853.25 1232.58 2857.44 1229.12 2860.98 1225.31 2864.53 1221.49 2867.11 1217.87 2868.72 1214.43L2864.2 1237.47C2863.99 1238.65 2864.07 1239.64 2864.45 1240.45 2864.82 1241.25 2865.66 1241.9 2866.94 1242.38 2868.23 1242.86 2869.93 1243.21 2872.02 1243.43 2874.12 1243.64 2876.83 1243.75 2880.16 1243.75 2886.71 1243.75 2891.47 1243.27 2894.42 1242.3 2897.38 1241.33 2899.07 1239.72 2899.5 1237.47L2928.35 1093.46C2928.56 1092.39 2928.46 1091.45 2928.03 1090.65 2927.6 1089.84 2926.76 1089.2 2925.53 1088.71 2924.29 1088.23 2922.6 1087.85 2920.45 1087.58 2918.3 1087.32 2915.62 1087.18 2912.39 1087.18 2905.84 1087.18 2901.08 1087.67 2898.13 1088.63 2895.18 1089.6 2893.48 1091.21 2893.05 1093.46L2890.47 1106.19C2885.32 1099.1 2879.3 1093.71 2872.42 1090 2865.55 1086.3 2857.65 1084.44 2848.73 1084.44ZM1968.56 1084.44C1959 1084.44 1950.43 1086.14 1942.86 1089.52 1935.28 1092.9 1928.57 1097.44 1922.71 1103.13 1916.86 1108.82 1911.84 1115.34 1907.64 1122.7 1903.45 1130.06 1900.02 1137.71 1897.33 1145.65 1894.64 1153.6 1892.66 1161.57 1891.37 1169.57 1890.08 1177.57 1889.43 1184.96 1889.43 1191.72 1889.43 1198.92 1890.16 1205.79 1891.61 1212.34 1893.06 1218.89 1895.5 1224.72 1898.94 1229.82 1902.38 1234.92 1906.95 1238.97 1912.64 1241.98 1918.34 1244.99 1925.48 1246.49 1934.08 1246.49 1940.31 1246.49 1946.35 1245.47 1952.21 1243.43 1958.06 1241.39 1963.41 1238.81 1968.24 1235.7 1973.08 1232.58 1977.27 1229.12 1980.81 1225.31 1984.36 1221.49 1986.94 1217.87 1988.55 1214.43L1984.04 1237.47C1983.82 1238.65 1983.9 1239.64 1984.28 1240.45 1984.65 1241.25 1985.49 1241.9 1986.78 1242.38 1988.07 1242.86 1989.76 1243.21 1991.85 1243.43 1993.95 1243.64 1996.66 1243.75 1999.99 1243.75 2006.55 1243.75 2011.3 1243.27 2014.25 1242.3 2017.21 1241.33 2018.9 1239.72 2019.33 1237.47L2048.18 1093.46C2048.39 1092.39 2048.29 1091.45 2047.86 1090.65 2047.43 1089.84 2046.59 1089.2 2045.36 1088.71 2044.12 1088.23 2042.43 1087.85 2040.28 1087.58 2038.13 1087.32 2035.45 1087.18 2032.22 1087.18 2025.67 1087.18 2020.92 1087.67 2017.96 1088.63 2015.01 1089.6 2013.31 1091.21 2012.88 1093.46L2010.31 1106.19C2005.15 1099.1 1999.13 1093.71 1992.26 1090 1985.38 1086.3 1977.48 1084.44 1968.56 1084.44ZM1871.17 1084.44C1867.19 1084.44 1863.16 1085.25 1859.08 1086.86 1855 1088.47 1851.05 1090.7 1847.24 1093.54 1843.42 1096.39 1839.82 1099.75 1836.44 1103.61 1833.05 1107.48 1830.07 1111.72 1827.49 1116.34L1832.01 1093.46C1832.22 1092.39 1832.14 1091.45 1831.76 1090.65 1831.39 1089.84 1830.61 1089.2 1829.43 1088.71 1828.24 1088.23 1826.61 1087.85 1824.51 1087.58 1822.42 1087.32 1819.7 1087.18 1816.37 1087.18 1813.15 1087.18 1810.38 1087.32 1808.07 1087.58 1805.76 1087.85 1803.88 1088.23 1802.43 1088.71 1800.98 1089.2 1799.88 1089.84 1799.13 1090.65 1798.38 1091.45 1797.89 1092.39 1797.68 1093.46L1768.99 1237.31C1768.78 1238.38 1768.88 1239.32 1769.31 1240.13 1769.74 1240.93 1770.68 1241.6 1772.13 1242.14 1773.58 1242.68 1775.57 1243.08 1778.1 1243.35 1780.62 1243.62 1783.87 1243.75 1787.85 1243.75 1791.71 1243.75 1794.99 1243.62 1797.68 1243.35 1800.36 1243.08 1802.54 1242.68 1804.2 1242.14 1805.87 1241.6 1807.11 1240.93 1807.91 1240.13 1808.72 1239.32 1809.23 1238.38 1809.44 1237.31L1822.34 1172.71C1823.62 1166.06 1825.75 1159.69 1828.7 1153.63 1831.66 1147.56 1835.01 1142.24 1838.77 1137.68 1842.53 1133.12 1846.48 1129.44 1850.62 1126.65 1854.76 1123.85 1858.65 1122.46 1862.3 1122.46 1864.13 1122.46 1865.74 1122.65 1867.14 1123.02 1868.54 1123.4 1869.82 1123.77 1871.01 1124.15 1872.19 1124.53 1873.26 1124.9 1874.23 1125.28 1875.2 1125.65 1876.16 1125.84 1877.13 1125.84 1878.31 1125.84 1879.41 1125.09 1880.43 1123.59 1881.46 1122.08 1882.37 1120.15 1883.17 1117.79 1883.98 1115.42 1884.71 1112.87 1885.35 1110.14 1885.99 1107.4 1886.53 1104.74 1886.96 1102.16 1887.39 1099.59 1887.71 1097.33 1887.93 1095.4 1888.14 1093.46 1888.25 1092.12 1888.25 1091.37 1888.25 1089.97 1887.93 1088.95 1887.28 1088.31 1886.64 1087.77 1885.75 1087.26 1884.63 1086.78 1883.5 1086.3 1882.21 1085.89 1880.76 1085.57 1879.31 1085.25 1877.75 1084.98 1876.08 1084.77 1874.42 1084.55 1872.78 1084.44 1871.17 1084.44ZM1676.32 1084.44C1666.76 1084.44 1658.19 1086.14 1650.62 1089.52 1643.04 1092.9 1636.33 1097.44 1630.47 1103.13 1624.61 1108.82 1619.59 1115.34 1615.4 1122.7 1611.21 1130.06 1607.77 1137.71 1605.09 1145.65 1602.4 1153.6 1600.41 1161.57 1599.12 1169.57 1597.83 1177.57 1597.19 1184.96 1597.19 1191.72 1597.19 1198.92 1597.91 1205.79 1599.37 1212.34 1600.82 1218.89 1603.26 1224.72 1606.7 1229.82 1610.14 1234.92 1614.7 1238.97 1620.4 1241.98 1626.09 1244.99 1633.24 1246.49 1641.83 1246.49 1648.06 1246.49 1654.11 1245.47 1659.96 1243.43 1665.82 1241.39 1671.16 1238.81 1676 1235.7 1680.83 1232.58 1685.02 1229.12 1688.57 1225.31 1692.12 1221.49 1694.69 1217.87 1696.31 1214.43L1691.79 1237.47C1691.58 1238.65 1691.66 1239.64 1692.03 1240.45 1692.41 1241.25 1693.24 1241.9 1694.53 1242.38 1695.82 1242.86 1697.51 1243.21 1699.61 1243.43 1701.7 1243.64 1704.42 1243.75 1707.75 1243.75 1714.3 1243.75 1719.06 1243.27 1722.01 1242.3 1724.97 1241.33 1726.66 1239.72 1727.09 1237.47L1755.94 1093.46C1756.15 1092.39 1756.04 1091.45 1755.61 1090.65 1755.18 1089.84 1754.35 1089.2 1753.12 1088.71 1751.88 1088.23 1750.19 1087.85 1748.04 1087.58 1745.89 1087.32 1743.2 1087.18 1739.98 1087.18 1733.43 1087.18 1728.67 1087.67 1725.72 1088.63 1722.76 1089.6 1721.07 1091.21 1720.64 1093.46L1718.06 1106.19C1712.91 1099.1 1706.89 1093.71 1700.01 1090 1693.14 1086.3 1685.24 1084.44 1676.32 1084.44ZM2126.02 1049.33C2122.05 1049.33 2118.74 1049.46 2116.11 1049.73 2113.48 1050 2111.33 1050.43 2109.66 1051.02 2108 1051.61 2106.76 1052.34 2105.96 1053.19 2105.15 1054.05 2104.64 1055.02 2104.43 1056.09L2097.98 1088.15 2080.73 1088.15C2078.8 1088.15 2077.14 1089.17 2075.74 1091.21 2074.34 1093.25 2073.21 1095.69 2072.35 1098.54 2071.49 1101.38 2070.88 1104.28 2070.5 1107.24 2070.12 1110.19 2069.94 1112.58 2069.94 1114.4 2069.94 1116.98 2070.26 1118.73 2070.9 1119.64 2071.55 1120.55 2072.57 1121.01 2073.97 1121.01L2091.37 1121.01 2077.35 1191.08C2077.03 1192.47 2076.73 1194.06 2076.46 1195.83 2076.2 1197.6 2075.93 1199.35 2075.66 1201.06 2075.39 1202.78 2075.2 1204.42 2075.09 1205.98 2074.99 1207.53 2074.93 1208.9 2074.93 1210.08 2074.93 1216.53 2075.77 1222 2077.43 1226.51 2079.1 1231.03 2081.59 1234.73 2084.92 1237.63 2088.26 1240.53 2092.36 1242.65 2097.25 1243.99 2102.14 1245.33 2107.81 1246.01 2114.26 1246.01 2117.27 1246.01 2120.27 1245.82 2123.28 1245.44 2126.29 1245.07 2129.11 1244.56 2131.74 1243.91 2134.38 1243.27 2136.66 1242.52 2138.59 1241.66 2140.53 1240.8 2141.98 1239.88 2142.94 1238.92 2143.91 1237.95 2144.82 1236.47 2145.68 1234.49 2146.54 1232.5 2147.32 1230.3 2148.02 1227.88 2148.72 1225.47 2149.28 1222.97 2149.71 1220.39 2150.14 1217.82 2150.36 1215.51 2150.36 1213.47 2150.36 1211.64 2150.06 1210.33 2149.47 1209.52 2148.88 1208.72 2148.15 1208.31 2147.3 1208.31 2146.44 1208.31 2145.52 1208.5 2144.56 1208.88 2143.59 1209.25 2142.43 1209.68 2141.09 1210.17 2139.75 1210.65 2138.16 1211.08 2136.34 1211.45 2134.51 1211.83 2132.31 1212.02 2129.73 1212.02 2125.32 1212.02 2122.1 1211.02 2120.06 1209.04 2118.02 1207.05 2117 1203.91 2117 1199.61 2117 1198.22 2117.13 1196.42 2117.4 1194.22 2117.67 1192.02 2117.96 1190.11 2118.29 1188.5L2131.82 1121.01 2163.25 1121.01C2164.43 1121.01 2165.53 1120.5 2166.55 1119.48 2167.57 1118.46 2168.49 1117.17 2169.29 1115.61 2170.1 1114.06 2170.83 1112.31 2171.47 1110.38 2172.11 1108.44 2172.62 1106.51 2173 1104.58 2173.38 1102.65 2173.67 1100.85 2173.89 1099.18 2174.1 1097.52 2174.21 1096.15 2174.21 1095.07 2174.21 1092.82 2173.89 1091.1 2173.24 1089.92 2172.6 1088.74 2171.36 1088.15 2169.54 1088.15L2138.43 1088.15 2144.88 1056.09C2145.09 1055.02 2144.96 1054.05 2144.47 1053.19 2143.99 1052.34 2143.05 1051.61 2141.65 1051.02 2140.26 1050.43 2138.27 1050 2135.69 1049.73 2133.11 1049.46 2129.89 1049.33 2126.02 1049.33ZM1481.37 1034.35C1480.08 1034.35 1478.9 1034.91 1477.82 1036.04 1476.75 1037.17 1475.78 1038.64 1474.92 1040.47 1474.06 1042.29 1473.34 1044.31 1472.74 1046.51 1472.15 1048.71 1471.67 1050.86 1471.29 1052.95 1470.92 1055.05 1470.65 1056.93 1470.49 1058.59 1470.33 1060.26 1470.25 1061.52 1470.25 1062.38 1470.25 1064.42 1470.54 1066.03 1471.13 1067.21 1471.72 1068.39 1472.82 1068.98 1474.44 1068.98L1526.33 1068.98 1492.81 1236.99C1492.59 1238.06 1492.73 1239.03 1493.21 1239.88 1493.7 1240.74 1494.66 1241.44 1496.11 1241.98 1497.56 1242.52 1499.63 1242.95 1502.32 1243.27 1505 1243.59 1508.39 1243.75 1512.47 1243.75 1516.66 1243.75 1520.13 1243.59 1522.87 1243.27 1525.61 1242.95 1527.86 1242.52 1529.64 1241.98 1531.41 1241.44 1532.72 1240.74 1533.58 1239.88 1534.44 1239.03 1535.03 1238.06 1535.36 1236.99L1568.88 1068.98 1621.26 1068.98C1622.55 1068.98 1623.76 1068.39 1624.88 1067.21 1626.01 1066.03 1626.98 1064.52 1627.78 1062.7 1628.59 1060.87 1629.29 1058.86 1629.88 1056.66 1630.47 1054.46 1630.95 1052.34 1631.33 1050.3 1631.71 1048.25 1631.97 1046.4 1632.14 1044.74 1632.3 1043.07 1632.38 1041.87 1632.38 1041.11 1632.38 1038.97 1632.03 1037.3 1631.33 1036.12 1630.63 1034.94 1629.64 1034.35 1628.35 1034.35ZM2413.05 1024.04C2408.43 1024.04 2404.57 1024.42 2401.45 1025.17 2398.33 1025.92 2395.7 1027.15 2393.55 1028.87 2391.4 1030.59 2389.69 1032.79 2388.4 1035.48 2387.11 1038.16 2386.09 1041.44 2385.33 1045.3 2384.47 1049.28 2384.15 1052.63 2384.37 1055.37 2384.58 1058.11 2385.41 1060.31 2386.86 1061.97 2388.32 1063.64 2390.46 1064.82 2393.31 1065.52 2396.16 1066.22 2399.84 1066.56 2404.35 1066.56 2408.97 1066.56 2412.84 1066.22 2415.96 1065.52 2419.07 1064.82 2421.7 1063.64 2423.85 1061.97 2426 1060.31 2427.72 1058.11 2429.01 1055.37 2430.3 1052.63 2431.32 1049.28 2432.07 1045.3 2432.82 1041.44 2433.12 1038.16 2432.96 1035.48 2432.8 1032.79 2431.99 1030.59 2430.54 1028.87 2429.09 1027.15 2426.94 1025.92 2424.09 1025.17 2421.25 1024.42 2417.57 1024.04 2413.05 1024.04ZM2654.69 1018.56C2650.72 1018.56 2647.41 1018.72 2644.78 1019.05 2642.15 1019.37 2639.97 1019.82 2638.25 1020.42 2636.53 1021.01 2635.3 1021.73 2634.55 1022.59 2633.79 1023.45 2633.31 1024.42 2633.1 1025.49L2590.71 1237.31C2590.5 1238.38 2590.6 1239.32 2591.03 1240.13 2591.46 1240.93 2592.4 1241.6 2593.85 1242.14 2595.3 1242.68 2597.29 1243.08 2599.82 1243.35 2602.34 1243.62 2605.59 1243.75 2609.57 1243.75 2613.43 1243.75 2616.71 1243.62 2619.4 1243.35 2622.08 1243.08 2624.26 1242.68 2625.92 1242.14 2627.59 1241.6 2628.83 1240.93 2629.63 1240.13 2630.44 1239.32 2630.95 1238.38 2631.16 1237.31L2644.22 1172.55C2645.61 1165.36 2647.98 1158.54 2651.31 1152.1 2654.64 1145.65 2658.43 1140.02 2662.67 1135.18 2666.91 1130.35 2671.43 1126.54 2676.21 1123.75 2680.99 1120.95 2685.58 1119.56 2689.99 1119.56 2692.35 1119.56 2694.39 1119.96 2696.11 1120.77 2697.83 1121.57 2699.23 1122.7 2700.3 1124.15 2701.38 1125.6 2702.15 1127.32 2702.64 1129.3 2703.12 1131.29 2703.36 1133.47 2703.36 1135.83 2703.36 1138.08 2703.2 1140.63 2702.88 1143.48 2702.56 1146.32 2702.18 1148.88 2701.75 1151.13L2684.51 1237.31C2684.29 1238.38 2684.43 1239.32 2684.91 1240.13 2685.39 1240.93 2686.33 1241.6 2687.73 1242.14 2689.13 1242.68 2691.09 1243.08 2693.61 1243.35 2696.14 1243.62 2699.33 1243.75 2703.2 1243.75 2707.28 1243.75 2710.64 1243.62 2713.28 1243.35 2715.91 1243.08 2718.06 1242.68 2719.72 1242.14 2721.39 1241.6 2722.62 1240.93 2723.43 1240.13 2724.23 1239.32 2724.74 1238.38 2724.96 1237.31L2742.69 1148.55C2743.44 1144.79 2744.03 1141.01 2744.46 1137.2 2744.89 1133.38 2745.1 1129.55 2745.1 1125.68 2745.1 1119.67 2744.38 1114.14 2742.93 1109.09 2741.48 1104.04 2739.14 1099.69 2735.92 1096.04 2732.7 1092.39 2728.56 1089.54 2723.51 1087.5 2718.46 1085.46 2712.28 1084.44 2704.98 1084.44 2699.39 1084.44 2693.94 1085.33 2688.62 1087.1 2683.3 1088.87 2678.36 1091.16 2673.79 1093.95 2669.22 1096.74 2665.17 1099.85 2661.62 1103.29 2658.08 1106.73 2655.28 1110.16 2653.24 1113.6 2653.99 1111.67 2654.77 1109.46 2655.58 1106.99 2656.38 1104.52 2657.19 1101.97 2658 1099.34 2658.8 1096.71 2659.53 1094.05 2660.17 1091.37 2660.82 1088.69 2661.41 1086.16 2661.94 1083.8L2673.39 1025.49C2673.6 1024.42 2673.49 1023.45 2673.06 1022.59 2672.63 1021.73 2671.72 1021.01 2670.33 1020.42 2668.93 1019.82 2666.97 1019.37 2664.44 1019.05 2661.92 1018.72 2658.67 1018.56 2654.69 1018.56ZM2496.54 1018.56C2492.56 1018.56 2489.26 1018.72 2486.63 1019.05 2483.99 1019.37 2481.82 1019.82 2480.1 1020.42 2478.38 1021.01 2477.14 1021.73 2476.39 1022.59 2475.64 1023.45 2475.16 1024.42 2474.94 1025.49L2432.39 1237.47C2432.18 1238.54 2432.31 1239.48 2432.8 1240.29 2433.28 1241.09 2434.22 1241.74 2435.62 1242.22 2437.01 1242.7 2438.97 1243.08 2441.5 1243.35 2444.02 1243.62 2447.27 1243.75 2451.25 1243.75 2455.12 1243.75 2458.39 1243.62 2461.08 1243.35 2463.77 1243.08 2465.94 1242.68 2467.61 1242.14 2469.27 1241.6 2470.51 1240.93 2471.31 1240.13 2472.12 1239.32 2472.68 1238.38 2473.01 1237.31L2488.16 1161.28 2522.16 1236.99C2522.48 1238.27 2522.99 1239.35 2523.69 1240.21 2524.39 1241.07 2525.47 1241.76 2526.92 1242.3 2528.37 1242.84 2530.41 1243.21 2533.04 1243.43 2535.67 1243.64 2539.14 1243.75 2543.44 1243.75 2547.73 1243.75 2551.31 1243.62 2554.15 1243.35 2557 1243.08 2559.26 1242.62 2560.92 1241.98 2562.59 1241.33 2563.77 1240.53 2564.47 1239.56 2565.17 1238.6 2565.51 1237.47 2565.51 1236.18 2565.51 1235.11 2565.3 1233.6 2564.87 1231.67 2564.44 1229.74 2563.69 1227.48 2562.61 1224.9L2529.58 1155.64 2580.34 1107.8C2583.67 1104.26 2586.06 1101.33 2587.51 1099.02 2588.96 1096.71 2589.69 1094.7 2589.69 1092.98 2589.69 1092.01 2589.39 1091.16 2588.8 1090.4 2588.21 1089.65 2587.16 1089.03 2585.66 1088.55 2584.16 1088.07 2582.06 1087.72 2579.38 1087.5 2576.69 1087.29 2573.36 1087.18 2569.38 1087.18 2565.3 1087.18 2561.89 1087.29 2559.15 1087.5 2556.41 1087.72 2554.07 1088.09 2552.14 1088.63 2550.2 1089.17 2548.62 1089.89 2547.38 1090.81 2546.15 1091.72 2544.99 1092.82 2543.92 1094.11L2490.09 1151.61 2515.23 1025.49C2515.45 1024.42 2515.34 1023.45 2514.91 1022.59 2514.48 1021.73 2513.57 1021.01 2512.17 1020.42 2510.77 1019.82 2508.81 1019.37 2506.29 1019.05 2503.76 1018.72 2500.51 1018.56 2496.54 1018.56ZM2238.68 1018.56C2234.7 1018.56 2231.4 1018.72 2228.76 1019.05 2226.13 1019.37 2223.96 1019.82 2222.24 1020.42 2220.52 1021.01 2219.28 1021.73 2218.53 1022.59 2217.78 1023.45 2217.29 1024.42 2217.08 1025.49L2174.69 1237.31C2174.48 1238.38 2174.59 1239.32 2175.02 1240.13 2175.45 1240.93 2176.39 1241.6 2177.84 1242.14 2179.29 1242.68 2181.27 1243.08 2183.8 1243.35 2186.32 1243.62 2189.57 1243.75 2193.55 1243.75 2197.42 1243.75 2200.69 1243.62 2203.38 1243.35 2206.07 1243.08 2208.24 1242.68 2209.91 1242.14 2211.57 1241.6 2212.81 1240.93 2213.61 1240.13 2214.42 1239.32 2214.93 1238.38 2215.15 1237.31L2228.2 1172.55C2229.6 1165.36 2231.96 1158.54 2235.29 1152.1 2238.62 1145.65 2242.41 1140.02 2246.65 1135.18 2250.9 1130.35 2255.41 1126.54 2260.19 1123.75 2264.97 1120.95 2269.56 1119.56 2273.97 1119.56 2276.33 1119.56 2278.38 1119.96 2280.09 1120.77 2281.81 1121.57 2283.21 1122.7 2284.28 1124.15 2285.36 1125.6 2286.14 1127.32 2286.62 1129.3 2287.1 1131.29 2287.35 1133.47 2287.35 1135.83 2287.35 1138.08 2287.19 1140.63 2286.86 1143.48 2286.54 1146.32 2286.16 1148.88 2285.73 1151.13L2268.49 1237.31C2268.28 1238.38 2268.41 1239.32 2268.89 1240.13 2269.38 1240.93 2270.32 1241.6 2271.71 1242.14 2273.11 1242.68 2275.07 1243.08 2277.6 1243.35 2280.12 1243.62 2283.32 1243.75 2287.19 1243.75 2291.27 1243.75 2294.63 1243.62 2297.26 1243.35 2299.89 1243.08 2302.04 1242.68 2303.7 1242.14 2305.37 1241.6 2306.61 1240.93 2307.41 1240.13 2308.22 1239.32 2308.73 1238.38 2308.94 1237.31L2326.67 1148.55C2327.42 1144.79 2328.01 1141.01 2328.44 1137.2 2328.87 1133.38 2329.09 1129.55 2329.09 1125.68 2329.09 1119.67 2328.36 1114.14 2326.91 1109.09 2325.46 1104.04 2323.12 1099.69 2319.9 1096.04 2316.68 1092.39 2312.54 1089.54 2307.49 1087.5 2302.44 1085.46 2296.26 1084.44 2288.96 1084.44 2283.37 1084.44 2277.92 1085.33 2272.6 1087.1 2267.28 1088.87 2262.34 1091.16 2257.77 1093.95 2253.21 1096.74 2249.15 1099.85 2245.6 1103.29 2242.06 1106.73 2239.27 1110.16 2237.22 1113.6 2237.98 1111.67 2238.76 1109.46 2239.56 1106.99 2240.37 1104.52 2241.17 1101.97 2241.98 1099.34 2242.78 1096.71 2243.51 1094.05 2244.15 1091.37 2244.8 1088.69 2245.39 1086.16 2245.93 1083.8L2257.37 1025.49C2257.59 1024.42 2257.48 1023.45 2257.05 1022.59 2256.62 1021.73 2255.7 1021.01 2254.31 1020.42 2252.91 1019.82 2250.95 1019.37 2248.43 1019.05 2245.9 1018.72 2242.65 1018.56 2238.68 1018.56ZM1740.63 723.736C1746.64 723.736 1751.93 725.212 1756.5 728.165 1761.07 731.118 1765.23 735.548 1768.99 741.454L1764.48 763.2C1762.97 770.609 1760.58 777.563 1757.31 784.059 1754.03 790.556 1750.24 796.248 1745.94 801.134 1741.65 806.02 1737.03 809.886 1732.08 812.731 1727.14 815.577 1722.31 817 1717.58 817 1714.25 817 1711.51 816.329 1709.36 814.986 1707.21 813.644 1705.49 811.846 1704.2 809.59 1702.91 807.335 1702.03 804.758 1701.54 801.859 1701.06 798.959 1700.82 795.899 1700.82 792.677 1700.82 788.274 1701.17 783.469 1701.87 778.261 1702.56 773.052 1703.64 767.898 1705.09 762.797 1706.54 757.696 1708.37 752.783 1710.57 748.058 1712.77 743.333 1715.32 739.172 1718.22 735.575 1721.12 731.977 1724.46 729.105 1728.22 726.957 1731.98 724.809 1736.11 723.736 1740.63 723.736ZM2055.7 692.003C2051.83 692.003 2048.56 692.137 2045.87 692.406 2043.18 692.674 2041.01 693.05 2039.34 693.533 2037.68 694.017 2036.44 694.661 2035.64 695.466 2034.83 696.272 2034.32 697.211 2034.1 698.285L2016.38 787.361C2015.62 791.335 2015.01 795.227 2014.52 799.04 2014.04 802.852 2013.8 806.583 2013.8 810.235 2013.8 816.141 2014.52 821.617 2015.97 826.665 2017.42 831.712 2019.73 836.034 2022.9 839.631 2026.07 843.229 2030.26 846.075 2035.47 848.169 2040.69 850.263 2047.05 851.309 2054.57 851.309 2060.59 851.309 2066.44 850.343 2072.14 848.41 2077.83 846.477 2083.12 843.927 2088.01 840.759 2092.9 837.591 2097.23 834.101 2100.99 830.289 2104.75 826.477 2107.7 822.691 2109.85 818.933L2105.5 842.289C2105.18 843.363 2105.2 844.303 2105.58 845.108 2105.96 845.913 2106.74 846.558 2107.92 847.041 2109.1 847.524 2110.74 847.9 2112.83 848.169 2114.93 848.437 2117.64 848.571 2120.97 848.571 2124.3 848.571 2127.1 848.437 2129.35 848.169 2131.61 847.9 2133.46 847.524 2134.91 847.041 2136.36 846.558 2137.44 845.913 2138.14 845.108 2138.83 844.303 2139.29 843.363 2139.51 842.289L2168.35 698.285C2168.57 697.211 2168.46 696.272 2168.03 695.466 2167.6 694.661 2166.66 694.017 2165.21 693.533 2163.76 693.05 2161.77 692.674 2159.25 692.406 2156.72 692.137 2153.47 692.003 2149.5 692.003 2145.63 692.003 2142.35 692.137 2139.67 692.406 2136.98 692.674 2134.8 693.05 2133.14 693.533 2131.47 694.017 2130.21 694.661 2129.35 695.466 2128.49 696.272 2128.01 697.211 2127.9 698.285L2115.65 760.461C2113.93 768.408 2111.38 775.791 2108 782.61 2104.61 789.429 2100.77 795.335 2096.47 800.328 2092.18 805.322 2087.64 809.241 2082.86 812.087 2078.08 814.933 2073.48 816.355 2069.08 816.355 2066.71 816.355 2064.7 815.98 2063.03 815.228 2061.37 814.476 2060 813.349 2058.92 811.846 2057.85 810.342 2057.07 808.543 2056.59 806.449 2056.1 804.355 2055.86 802.02 2055.86 799.442 2055.86 797.08 2056 794.61 2056.26 792.033 2056.53 789.455 2056.94 786.986 2057.47 784.623L2074.56 698.285C2074.77 697.211 2074.64 696.272 2074.15 695.466 2073.67 694.661 2072.73 694.017 2071.33 693.533 2069.94 693.05 2067.98 692.674 2065.45 692.406 2062.93 692.137 2059.68 692.003 2055.7 692.003ZM1945.14 689.265C1938.91 689.265 1932.92 690.258 1927.17 692.245 1921.42 694.231 1916.11 696.782 1911.22 699.896 1906.33 703.01 1902 706.527 1898.24 710.447 1894.48 714.366 1891.47 718.205 1889.22 721.964L1893.89 698.285C1894.11 697.211 1894.03 696.272 1893.65 695.466 1893.27 694.661 1892.5 694.017 1891.31 693.533 1890.13 693.05 1888.49 692.674 1886.4 692.406 1884.3 692.137 1881.59 692.003 1878.26 692.003 1875.04 692.003 1872.27 692.137 1869.96 692.406 1867.65 692.674 1865.77 693.05 1864.32 693.533 1862.87 694.017 1861.79 694.661 1861.1 695.466 1860.4 696.272 1859.94 697.211 1859.73 698.285L1830.88 842.128C1830.66 843.202 1830.77 844.142 1831.2 844.947 1831.63 845.753 1832.57 846.424 1834.02 846.96 1835.47 847.498 1837.46 847.9 1839.98 848.169 1842.51 848.437 1845.76 848.571 1849.73 848.571 1853.6 848.571 1856.88 848.437 1859.56 848.169 1862.25 847.9 1864.43 847.498 1866.09 846.96 1867.76 846.424 1868.99 845.753 1869.8 844.947 1870.6 844.142 1871.11 843.202 1871.33 842.128L1884.38 777.052C1885.78 769.858 1888.14 763.065 1891.47 756.676 1894.81 750.287 1898.59 744.703 1902.84 739.924 1907.08 735.145 1911.59 731.36 1916.37 728.568 1921.16 725.776 1925.75 724.38 1930.15 724.38 1934.99 724.38 1938.43 725.937 1940.47 729.051 1942.51 732.165 1943.53 736.139 1943.53 740.971 1943.53 743.011 1943.4 745.374 1943.13 748.058 1942.86 750.743 1942.46 753.374 1941.92 755.951L1924.51 842.128C1924.3 843.202 1924.43 844.142 1924.92 844.947 1925.4 845.753 1926.34 846.424 1927.74 846.96 1929.13 847.498 1931.09 847.9 1933.62 848.169 1936.14 848.437 1939.39 848.571 1943.37 848.571 1947.34 848.571 1950.65 848.437 1953.28 848.169 1955.91 847.9 1958.06 847.498 1959.73 846.96 1961.39 846.424 1962.63 845.753 1963.43 844.947 1964.24 844.142 1964.75 843.202 1964.97 842.128L1982.85 753.374C1983.61 749.401 1984.22 745.535 1984.71 741.776 1985.19 738.018 1985.43 734.259 1985.43 730.501 1985.43 724.917 1984.73 719.628 1983.34 714.635 1981.94 709.641 1979.66 705.265 1976.49 701.507 1973.32 697.748 1969.18 694.768 1964.08 692.567 1958.98 690.365 1952.66 689.265 1945.14 689.265ZM1738.21 689.265C1728.65 689.265 1720.08 690.956 1712.5 694.339 1704.93 697.722 1698.21 702.259 1692.36 707.95 1686.5 713.641 1681.48 720.165 1677.29 727.521 1673.1 734.877 1669.66 742.528 1666.97 750.474 1664.29 758.421 1662.3 766.395 1661.01 774.395 1659.72 782.395 1659.08 789.778 1659.08 796.543 1659.08 803.738 1659.8 810.611 1661.25 817.161 1662.7 823.712 1665.15 829.537 1668.59 834.638 1672.02 839.739 1676.59 843.792 1682.28 846.799 1687.98 849.806 1695.12 851.309 1703.72 851.309 1709.95 851.309 1715.99 850.29 1721.85 848.249 1727.71 846.209 1733.05 843.632 1737.89 840.517 1742.72 837.403 1746.91 833.94 1750.46 830.128 1754 826.316 1756.58 822.691 1758.19 819.255L1753.68 842.289C1753.46 843.47 1753.55 844.464 1753.92 845.269 1754.3 846.075 1755.13 846.719 1756.42 847.202 1757.71 847.685 1759.4 848.034 1761.5 848.249 1763.59 848.464 1766.3 848.571 1769.64 848.571 1776.19 848.571 1780.94 848.088 1783.9 847.122 1786.85 846.155 1788.54 844.544 1788.97 842.289L1817.82 698.285C1818.04 697.211 1817.93 696.272 1817.5 695.466 1817.07 694.661 1816.24 694.017 1815 693.533 1813.77 693.05 1812.07 692.674 1809.93 692.406 1807.78 692.137 1805.09 692.003 1801.87 692.003 1795.31 692.003 1790.56 692.486 1787.6 693.453 1784.65 694.419 1782.96 696.03 1782.53 698.285L1779.95 711.01C1774.79 703.923 1768.78 698.527 1761.9 694.822 1755.02 691.117 1747.13 689.265 1738.21 689.265ZM1290.93 689.265C1284.91 689.265 1279.08 690.258 1273.44 692.245 1267.8 694.231 1262.59 696.782 1257.81 699.896 1253.02 703.01 1248.75 706.527 1244.99 710.447 1241.23 714.366 1238.22 718.205 1235.97 721.964L1240.64 698.285C1240.86 697.211 1240.78 696.272 1240.4 695.466 1240.02 694.661 1239.25 694.017 1238.06 693.533 1236.88 693.05 1235.24 692.674 1233.15 692.406 1231.05 692.137 1228.34 692.003 1225.01 692.003 1221.79 692.003 1219.02 692.137 1216.71 692.406 1214.4 692.674 1212.52 693.05 1211.07 693.533 1209.62 694.017 1208.54 694.661 1207.84 695.466 1207.15 696.272 1206.69 697.211 1206.48 698.285L1177.63 842.128C1177.41 843.202 1177.52 844.142 1177.95 844.947 1178.38 845.753 1179.32 846.424 1180.77 846.96 1182.22 847.498 1184.21 847.9 1186.73 848.169 1189.26 848.437 1192.51 848.571 1196.48 848.571 1200.35 848.571 1203.63 848.437 1206.31 848.169 1209 847.9 1211.18 847.498 1212.84 846.96 1214.51 846.424 1215.74 845.753 1216.55 844.947 1217.35 844.142 1217.86 843.202 1218.08 842.128L1231.13 777.052C1232.53 769.858 1234.87 763.065 1238.14 756.676 1241.42 750.287 1245.18 744.703 1249.43 739.924 1253.67 735.145 1258.1 731.36 1262.72 728.568 1267.34 725.776 1271.8 724.38 1276.1 724.38 1280.83 724.38 1284.16 725.91 1286.09 728.971 1288.02 732.031 1288.99 735.924 1288.99 740.649 1288.99 743.119 1288.86 745.669 1288.59 748.3 1288.32 750.931 1287.86 753.482 1287.22 755.951L1270.14 842.128C1269.92 843.202 1270.05 844.142 1270.54 844.947 1271.02 845.753 1271.96 846.424 1273.36 846.96 1274.76 847.498 1276.72 847.9 1279.24 848.169 1281.77 848.437 1284.96 848.571 1288.83 848.571 1292.81 848.571 1296.11 848.437 1298.74 848.169 1301.37 847.9 1303.55 847.498 1305.27 846.96 1306.99 846.424 1308.25 845.753 1309.06 844.947 1309.86 844.142 1310.37 843.202 1310.59 842.128L1323.64 777.052C1325.04 769.858 1327.37 763.065 1330.65 756.676 1333.93 750.287 1337.69 744.703 1341.93 739.924 1346.18 735.145 1350.61 731.36 1355.23 728.568 1359.85 725.776 1364.31 724.38 1368.61 724.38 1373.44 724.38 1376.8 725.937 1378.68 729.051 1380.56 732.165 1381.5 736.246 1381.5 741.293 1381.5 743.763 1381.34 746.206 1381.02 748.622 1380.69 751.038 1380.32 753.482 1379.89 755.951L1362.64 842.128C1362.32 843.202 1362.4 844.142 1362.88 844.947 1363.37 845.753 1364.31 846.424 1365.7 846.96 1367.1 847.498 1369.09 847.9 1371.67 848.169 1374.25 848.437 1377.47 848.571 1381.34 848.571 1385.31 848.571 1388.62 848.437 1391.25 848.169 1393.88 847.9 1396.06 847.498 1397.78 846.96 1399.5 846.424 1400.76 845.753 1401.56 844.947 1402.37 844.142 1402.88 843.202 1403.09 842.128L1420.82 753.374C1421.68 749.401 1422.33 745.508 1422.76 741.696 1423.19 737.884 1423.4 734.098 1423.4 730.34 1423.4 724.541 1422.7 719.145 1421.31 714.151 1419.91 709.158 1417.65 704.809 1414.54 701.104 1411.42 697.399 1407.31 694.5 1402.21 692.406 1397.11 690.312 1390.79 689.265 1383.27 689.265 1377.36 689.265 1371.61 690.258 1366.03 692.245 1360.44 694.231 1355.26 696.782 1350.48 699.896 1345.69 703.01 1341.4 706.5 1337.58 710.366 1333.77 714.232 1330.63 718.098 1328.15 721.964 1327.72 717.346 1326.73 713.051 1325.17 709.078 1323.61 705.104 1321.36 701.641 1318.4 698.688 1315.45 695.735 1311.69 693.426 1307.12 691.762 1302.56 690.097 1297.16 689.265 1290.93 689.265ZM1543.25 639.17C1541.96 639.17 1540.78 639.733 1539.71 640.861 1538.63 641.988 1537.67 643.465 1536.81 645.29 1535.95 647.116 1535.22 649.129 1534.63 651.331 1534.04 653.532 1533.56 655.68 1533.18 657.774 1532.8 659.868 1532.54 661.747 1532.38 663.411 1532.21 665.076 1532.13 666.338 1532.13 667.197 1532.13 669.238 1532.43 670.848 1533.02 672.029 1533.61 673.21 1534.71 673.801 1536.32 673.801L1588.22 673.801 1554.7 841.806C1554.48 842.88 1554.62 843.846 1555.1 844.705 1555.58 845.565 1556.55 846.262 1558 846.799 1559.45 847.336 1561.52 847.766 1564.2 848.088 1566.89 848.41 1570.28 848.571 1574.36 848.571 1578.55 848.571 1582.01 848.41 1584.75 848.088 1587.49 847.766 1589.75 847.336 1591.52 846.799 1593.29 846.262 1594.61 845.565 1595.47 844.705 1596.33 843.846 1596.92 842.88 1597.24 841.806L1630.77 673.801 1683.14 673.801C1684.43 673.801 1685.64 673.21 1686.77 672.029 1687.9 670.848 1688.86 669.345 1689.67 667.519 1690.48 665.694 1691.17 663.68 1691.77 661.479 1692.36 659.277 1692.84 657.156 1693.22 655.116 1693.59 653.076 1693.86 651.223 1694.02 649.559 1694.18 647.894 1694.26 646.686 1694.26 645.935 1694.26 643.787 1693.91 642.122 1693.22 640.941 1692.52 639.76 1691.52 639.17 1690.23 639.17ZM1080.5 638.203C1076.42 638.203 1073.01 638.337 1070.27 638.606 1067.53 638.874 1065.27 639.277 1063.5 639.813 1061.72 640.351 1060.38 641.048 1059.47 641.908 1058.55 642.767 1058.04 643.733 1057.94 644.807L1018.45 841.967C1018.13 843.041 1018.24 844.007 1018.77 844.866 1019.31 845.725 1020.33 846.424 1021.84 846.96 1023.34 847.498 1025.41 847.9 1028.04 848.169 1030.67 848.437 1034.08 848.571 1038.27 848.571 1042.36 848.571 1045.8 848.437 1048.59 848.169 1051.38 847.9 1053.67 847.498 1055.44 846.96 1057.21 846.424 1058.53 845.725 1059.39 844.866 1060.25 844.007 1060.78 843.041 1061 841.967L1100.32 644.807C1100.54 643.733 1100.4 642.767 1099.92 641.908 1099.44 641.048 1098.42 640.351 1096.86 639.813 1095.3 639.277 1093.2 638.874 1090.57 638.606 1087.94 638.337 1084.58 638.203 1080.5 638.203ZM1174.24 622.095C1170.16 622.095 1166.72 622.283 1163.93 622.659 1161.13 623.035 1158.8 623.84 1156.92 625.075 1155.04 626.31 1153.53 628.055 1152.4 630.31 1151.28 632.565 1150.39 635.518 1149.75 639.17L1144.91 663.009 1116.55 707.467C1115.58 708.97 1115.02 710.259 1114.85 711.333 1114.69 712.406 1114.99 713.265 1115.74 713.91 1116.49 714.554 1117.81 715.01 1119.69 715.279 1121.57 715.547 1124.07 715.682 1127.18 715.682 1129.87 715.682 1132.23 715.574 1134.27 715.359 1136.32 715.145 1138.14 714.796 1139.75 714.312 1141.37 713.829 1142.76 713.212 1143.94 712.46 1145.13 711.708 1146.2 710.796 1147.17 709.722L1174.73 678.795C1180.85 672.029 1185.58 664.701 1188.91 656.808 1192.24 648.915 1193.9 641.048 1193.9 633.21 1193.9 631.169 1193.61 629.451 1193.02 628.055 1192.43 626.659 1191.38 625.505 1189.88 624.591 1188.37 623.679 1186.36 623.035 1183.83 622.659 1181.31 622.283 1178.11 622.095 1174.24 622.095ZM2200.5 277.5C3288.5 277.5 4170.5 753.421 4170.5 1340.5 4170.5 1927.58 3288.5 2403.5 2200.5 2403.5 1112.5 2403.5 230.5 1927.58 230.5 1340.5 230.5 753.421 1112.5 277.5 2200.5 277.5Z" stroke="#172C51" stroke-width="4.58333" stroke-miterlimit="8" fill-rule="evenodd"/></g></svg>