<svg width="352" height="352" viewBox="0 0 352 352" fill="none" xmlns="http://www.w3.org/2000/svg">
<path d="M176.045 0.656256C222.607 0.788076 267.214 19.3862 300.078 52.3695C332.943 85.3528 351.38 130.027 351.344 176.588C351.187 222.091 333.349 265.751 301.596 298.343C269.843 330.936 226.664 349.909 181.181 351.253L175.615 351.344C130.104 351.248 86.4129 333.46 53.7766 301.739C21.1402 270.019 2.1158 226.852 0.724125 181.362L0.65625 175.819C0.704228 129.338 19.2053 84.7787 52.0932 51.9333C84.9811 19.0878 129.565 0.644236 176.045 0.656256ZM220.141 192.969H131.836C135.343 258.513 158.443 313.854 174.507 317.248L176.045 317.406C191.43 317.361 214.96 263.898 219.757 199.078L220.141 192.969ZM316.411 192.969H254.147C252.088 237.314 242.155 278.559 227.268 307.813C250.231 298.867 270.46 284.082 285.955 264.92C301.451 245.758 311.676 222.883 315.619 198.557L316.411 192.969ZM97.8306 192.969H35.6119C38.6894 218.364 48.5906 242.45 64.2628 262.668C79.9351 282.886 100.793 298.479 124.619 307.791C110.704 280.46 101.179 242.744 98.3284 201.77L97.8306 192.946V192.969ZM124.709 44.1868L122.107 45.2275C98.8894 54.8167 78.6412 70.4112 63.4409 90.4106C48.2406 110.41 38.6357 134.094 35.6119 159.031H97.8306C99.7538 117.628 108.487 78.9388 121.791 50.205L124.709 44.1868ZM175.887 34.5938C160.004 34.639 135.524 91.4278 131.836 159.031H220.164C216.634 93.3509 193.512 38.1459 177.358 34.7295L175.887 34.5711V34.5938ZM227.472 44.3678L227.992 45.499C242.54 74.64 252.178 115.275 254.169 159.031H316.343C313.206 133.691 303.293 109.666 287.649 89.4868C272.005 69.3073 251.231 53.7204 227.472 44.3678Z" fill="black"/>
</svg>
