<svg width="509" height="509" viewBox="0 0 509 509" fill="none" xmlns="http://www.w3.org/2000/svg">
<path d="M254.5 11.1344C120.299 11.1344 11.1344 120.299 11.1344 254.5C11.1344 388.701 120.299 497.866 254.5 497.866C388.701 497.866 497.866 388.701 497.866 254.5C497.866 120.299 388.701 11.1344 254.5 11.1344ZM254.5 456.509C190.541 456.509 133.533 426.542 96.5032 380C122.297 346.25 158.278 321.709 199.114 310.013C184.411 300.673 172.302 287.773 163.911 272.508C155.519 257.243 151.116 240.107 151.109 222.687C151.109 165.679 197.492 119.297 254.5 119.297C311.508 119.297 357.891 165.679 357.891 222.687C357.876 240.109 353.468 257.246 345.074 272.513C336.681 287.779 324.572 300.682 309.87 310.029C350.714 321.716 386.703 346.259 412.497 380.016C375.467 426.542 318.459 456.509 254.5 456.509Z" fill="#808080"/>
</svg>
